<svg width="997" height="510" viewBox="0 0 997 510" fill="none" xmlns="http://www.w3.org/2000/svg">
<rect width="997" height="510" fill="url(#paint0_linear_748_3)"/>
<ellipse cx="69.9272" cy="86.3268" rx="0.384212" ry="0.411733" fill="#6F6F6F"/>
<ellipse cx="259.151" cy="52.8395" rx="0.576319" ry="0.411733" fill="#6F6F6F"/>
<ellipse cx="58.5919" cy="292.193" rx="0.576319" ry="0.411733" fill="#6F6F6F"/>
<ellipse cx="153.108" cy="271.744" rx="0.576319" ry="0.548978" fill="#6F6F6F"/>
<ellipse cx="0.558082" cy="0.42933" rx="0.558082" ry="0.42933" transform="matrix(0.971495 -0.237059 0.431329 0.902194 366.602 359.627)" fill="#6F6F6F"/>
<ellipse cx="32.8517" cy="248.962" rx="0.576319" ry="0.274489" fill="#6F6F6F"/>
<ellipse cx="190.953" cy="284.92" rx="0.384212" ry="0.548978" fill="#6F6F6F"/>
<ellipse cx="330.807" cy="411.047" rx="0.768425" ry="0.411733" fill="#6F6F6F"/>
<ellipse cx="0.837122" cy="0.85866" rx="0.837122" ry="0.85866" transform="matrix(0.971495 -0.237059 0.431329 0.902194 351.537 252.143)" fill="#6F6F6F"/>
<ellipse cx="935.75" cy="411.87" rx="0.960531" ry="0.960711" fill="#6F6F6F"/>
<ellipse cx="0.729779" cy="1.018" rx="0.729779" ry="1.018" transform="matrix(0.772546 0.634959 -0.849526 0.527547 896.174 302.55)" fill="#6F6F6F"/>
<ellipse cx="0.668155" cy="1.09063" rx="0.668155" ry="1.09063" transform="matrix(0.563798 0.825913 -0.944324 0.329016 845.4 221.353)" fill="#6F6F6F"/>
<ellipse cx="0.619451" cy="1.14059" rx="0.619451" ry="1.14059" transform="matrix(-0.189777 0.981827 -0.995169 -0.0981773 931.107 217.09)" fill="#6F6F6F"/>
<ellipse cx="644.517" cy="492.982" rx="0.960531" ry="0.823466" fill="#6F6F6F"/>
<ellipse cx="864.479" cy="106.502" rx="0.768425" ry="0.823466" fill="#6F6F6F"/>
<ellipse cx="511.578" cy="363.972" rx="0.960531" ry="0.823466" fill="#6F6F6F"/>
<ellipse cx="0.567877" cy="0.416288" rx="0.567877" ry="0.416288" transform="matrix(0.990645 0.136466 -0.260575 0.965454 184.568 94.9004)" fill="#6F6F6F"/>
<ellipse cx="0.567877" cy="0.416288" rx="0.567877" ry="0.416288" transform="matrix(0.990645 0.136466 -0.260575 0.965454 396.041 72.3428)" fill="#6F6F6F"/>
<ellipse cx="652.776" cy="329.935" rx="0.768425" ry="0.274489" fill="#6F6F6F"/>
<ellipse cx="179.427" cy="314.427" rx="0.768425" ry="0.411733" fill="#6F6F6F"/>
<ellipse cx="298.725" cy="210.121" rx="0.576319" ry="0.686222" fill="#6F6F6F"/>
<ellipse cx="791.478" cy="78.6413" rx="0.384212" ry="0.686222" fill="#6F6F6F"/>
<ellipse cx="0.558082" cy="0.643995" rx="0.558082" ry="0.643995" transform="matrix(0.971495 -0.237059 0.431329 0.902194 459.602 330.013)" fill="#6F6F6F"/>
<ellipse cx="842.962" cy="413.243" rx="0.384212" ry="0.411733" fill="#6F6F6F"/>
<ellipse cx="0.486519" cy="0.763497" rx="0.486519" ry="0.763497" transform="matrix(0.772546 0.634959 -0.849526 0.527547 833.932 253.889)" fill="#6F6F6F"/>
<ellipse cx="0.536719" cy="0.683632" rx="0.536719" ry="0.683632" transform="matrix(0.924448 0.381307 -0.628547 0.777771 749.152 226.298)" fill="#6F6F6F"/>
<ellipse cx="0.412967" cy="0.855444" rx="0.412967" ry="0.855444" transform="matrix(-0.189777 0.981827 -0.995169 -0.0981773 941.453 151.586)" fill="#6F6F6F"/>
<ellipse cx="0.567877" cy="0.416288" rx="0.567877" ry="0.416288" transform="matrix(0.990645 0.136466 -0.260575 0.965454 357.818 116.683)" fill="#6F6F6F"/>
<ellipse cx="626.842" cy="378.657" rx="0.576319" ry="0.411733" fill="#6F6F6F"/>
<ellipse cx="709.64" cy="67.2501" rx="0.384212" ry="0.274489" fill="#6F6F6F"/>
<ellipse cx="583.428" cy="10.7052" rx="0.576319" ry="0.548978" fill="#6F6F6F"/>
<ellipse cx="0.567877" cy="0.416288" rx="0.567877" ry="0.416288" transform="matrix(0.990645 0.136466 -0.260575 0.965454 186.738 86.8623)" fill="#6F6F6F"/>
<ellipse cx="0.567877" cy="0.416288" rx="0.567877" ry="0.416288" transform="matrix(0.990645 0.136466 -0.260575 0.965454 398.428 63.501)" fill="#6F6F6F"/>
<ellipse cx="652.776" cy="320.878" rx="0.768425" ry="0.274489" fill="#6F6F6F"/>
<ellipse cx="179.427" cy="305.369" rx="0.768425" ry="0.411733" fill="#6F6F6F"/>
<ellipse cx="0.567877" cy="0.416288" rx="0.567877" ry="0.416288" transform="matrix(0.990645 0.136466 -0.260575 0.965454 282.639 185.527)" fill="#6F6F6F"/>
<ellipse cx="791.478" cy="69.857" rx="0.384212" ry="0.411733" fill="#6F6F6F"/>
<ellipse cx="0.558082" cy="0.42933" rx="0.558082" ry="0.42933" transform="matrix(0.971495 -0.237059 0.431329 0.902194 455.713 321.879)" fill="#6F6F6F"/>
<ellipse cx="842.962" cy="404.459" rx="0.384212" ry="0.411733" fill="#6F6F6F"/>
<ellipse cx="0.486519" cy="0.508998" rx="0.486519" ry="0.508998" transform="matrix(0.772546 0.634959 -0.849526 0.527547 843.012 248.25)" fill="#6F6F6F"/>
<ellipse cx="0.445436" cy="0.545313" rx="0.445436" ry="0.545313" transform="matrix(0.563798 0.825913 -0.944324 0.329016 813.723 159.072)" fill="#6F6F6F"/>
<ellipse cx="0.412967" cy="0.570296" rx="0.412967" ry="0.570296" transform="matrix(-0.189777 0.981827 -0.995169 -0.0981773 953.373 152.762)" fill="#6F6F6F"/>
<ellipse cx="0.567877" cy="0.416288" rx="0.567877" ry="0.416288" transform="matrix(0.990645 0.136466 -0.260575 0.965454 185.91 94.252)" fill="#6F6F6F"/>
<ellipse cx="0.567877" cy="0.416288" rx="0.567877" ry="0.416288" transform="matrix(0.990645 0.136466 -0.260575 0.965454 397.383 71.6934)" fill="#6F6F6F"/>
<ellipse cx="653.929" cy="329.112" rx="0.384212" ry="0.548978" fill="#6F6F6F"/>
<ellipse cx="180.58" cy="313.604" rx="0.384212" ry="0.411733" fill="#6F6F6F"/>
<ellipse cx="299.687" cy="209.023" rx="0.384212" ry="0.411733" fill="#6F6F6F"/>
<ellipse cx="792.632" cy="77.6798" rx="0.768425" ry="0.274489" fill="#6F6F6F"/>
<ellipse cx="0.558082" cy="0.42933" rx="0.558082" ry="0.42933" transform="matrix(0.971495 -0.237059 0.431329 0.902194 460.316 328.974)" fill="#6F6F6F"/>
<ellipse cx="844.114" cy="412.282" rx="0.768425" ry="0.548978" fill="#6F6F6F"/>
<ellipse cx="0.486519" cy="0.508998" rx="0.486519" ry="0.508998" transform="matrix(0.772546 0.634959 -0.849526 0.527547 835.549 253.97)" fill="#6F6F6F"/>
<ellipse cx="0.445436" cy="0.545313" rx="0.445436" ry="0.545313" transform="matrix(0.563798 0.825913 -0.944324 0.329016 804.441 163.217)" fill="#6F6F6F"/>
<ellipse cx="0.412967" cy="0.570296" rx="0.412967" ry="0.570296" transform="matrix(-0.189777 0.981827 -0.995169 -0.0981773 942.432 152.509)" fill="#6F6F6F"/>
<ellipse cx="0.558082" cy="0.42933" rx="0.558082" ry="0.42933" transform="matrix(0.971495 -0.237059 0.431329 0.902194 299.311 317.656)" fill="#6F6F6F"/>
<ellipse cx="432.045" cy="413.38" rx="0.576319" ry="0.274489" fill="#6F6F6F"/>
<ellipse cx="283.742" cy="42.546" rx="0.576319" ry="0.274489" fill="#6F6F6F"/>
<ellipse cx="80.3002" cy="296.448" rx="0.384212" ry="0.548978" fill="#6F6F6F"/>
<ellipse cx="104.507" cy="94.5621" rx="0.384212" ry="0.411733" fill="#6F6F6F"/>
<ellipse cx="296.42" cy="46.6622" rx="0.576319" ry="0.274489" fill="#6F6F6F"/>
<ellipse cx="76.8421" cy="310.035" rx="1.15264" ry="0.960711" fill="#6F6F6F"/>
<ellipse cx="174.431" cy="231.669" rx="0.384212" ry="0.274489" fill="#6F6F6F"/>
<ellipse cx="0.558082" cy="0.42933" rx="0.558082" ry="0.42933" transform="matrix(0.971495 -0.237059 0.431329 0.902194 368.512 316.773)" fill="#6F6F6F"/>
<ellipse cx="762.854" cy="379.481" rx="0.576319" ry="0.411733" fill="#6F6F6F"/>
<ellipse cx="67.0451" cy="257.059" rx="0.576319" ry="0.411733" fill="#6F6F6F"/>
<ellipse cx="225.917" cy="292.605" rx="0.384212" ry="0.548978" fill="#6F6F6F"/>
<ellipse cx="365.77" cy="418.87" rx="0.768425" ry="0.274489" fill="#6F6F6F"/>
<ellipse cx="77.9955" cy="190.77" rx="0.384212" ry="0.274489" fill="#6F6F6F"/>
<ellipse cx="207.091" cy="34.0363" rx="0.384212" ry="0.548978" fill="#6F6F6F"/>
<ellipse cx="6.33999" cy="273.391" rx="0.576319" ry="0.548978" fill="#6F6F6F"/>
<ellipse cx="286.047" cy="355.6" rx="0.576319" ry="0.411733" fill="#6F6F6F"/>
<ellipse cx="425.901" cy="481.728" rx="0.576319" ry="0.548978" fill="#6F6F6F"/>
<ellipse cx="0.837122" cy="0.85866" rx="0.837122" ry="0.85866" transform="matrix(0.971495 -0.237059 0.431329 0.902194 473.576 297.191)" fill="#6F6F6F"/>
<ellipse cx="871.203" cy="385.519" rx="0.960531" ry="0.960711" fill="#6F6F6F"/>
<ellipse cx="0.729779" cy="1.018" rx="0.729779" ry="1.018" transform="matrix(0.772546 0.634959 -0.849526 0.527547 881.752 250.766)" fill="#6F6F6F"/>
<ellipse cx="0.668155" cy="1.09063" rx="0.668155" ry="1.09063" transform="matrix(0.563798 0.825913 -0.944324 0.329016 850.23 168.666)" fill="#6F6F6F"/>
<ellipse cx="0.619451" cy="1.14059" rx="0.619451" ry="1.14059" transform="matrix(-0.189777 0.981827 -0.995169 -0.0981773 976.205 175.262)" fill="#6F6F6F"/>
<ellipse cx="606.48" cy="434.653" rx="0.960531" ry="0.686222" fill="#6F6F6F"/>
<ellipse cx="691.197" cy="337.758" rx="0.384212" ry="0.411733" fill="#6F6F6F"/>
<ellipse cx="0.768425" cy="28.2726" rx="0.768425" ry="0.548978" fill="#6F6F6F"/>
<ellipse cx="0.851815" cy="0.832576" rx="0.851815" ry="0.832576" transform="matrix(0.990645 0.136466 -0.260575 0.965454 272.941 158.764)" fill="#6F6F6F"/>
<ellipse cx="774.956" cy="45.4285" rx="0.768425" ry="0.960711" fill="#6F6F6F"/>
<ellipse cx="0.837122" cy="0.85866" rx="0.837122" ry="0.85866" transform="matrix(0.971495 -0.237059 0.431329 0.902194 428.693 302.088)" fill="#6F6F6F"/>
<ellipse cx="826.633" cy="379.893" rx="0.576319" ry="0.823466" fill="#6F6F6F"/>
<ellipse cx="0.729779" cy="1.018" rx="0.729779" ry="1.018" transform="matrix(0.772546 0.634959 -0.849526 0.527547 858.488 222.911)" fill="#6F6F6F"/>
<ellipse cx="0.668155" cy="1.09063" rx="0.668155" ry="1.09063" transform="matrix(0.563798 0.825913 -0.944324 0.329016 837.852 137.459)" fill="#6F6F6F"/>
<ellipse cx="0.619451" cy="1.14059" rx="0.619451" ry="1.14059" transform="matrix(-0.189777 0.981827 -0.995169 -0.0981773 990.266 144.419)" fill="#6F6F6F"/>
<ellipse cx="0.567877" cy="0.416288" rx="0.567877" ry="0.416288" transform="matrix(0.990645 0.136466 -0.260575 0.965454 322.719 54.3223)" fill="#6F6F6F"/>
<ellipse cx="0.558082" cy="0.42933" rx="0.558082" ry="0.42933" transform="matrix(0.971495 -0.237059 0.431329 0.902194 593.889 280.377)" fill="#6F6F6F"/>
<ellipse cx="115.457" cy="319.23" rx="0.960531" ry="0.823466" fill="#6F6F6F"/>
<ellipse cx="0.567877" cy="0.416288" rx="0.567877" ry="0.416288" transform="matrix(0.990645 0.136466 -0.260575 0.965454 259.188 177.295)" fill="#6F6F6F"/>
<ellipse cx="766.12" cy="65.0539" rx="0.768425" ry="0.548978" fill="#6F6F6F"/>
<ellipse cx="0.558082" cy="0.42933" rx="0.558082" ry="0.42933" transform="matrix(0.971495 -0.237059 0.431329 0.902194 429.635 323.052)" fill="#6F6F6F"/>
<ellipse cx="817.602" cy="399.518" rx="0.768425" ry="0.411733" fill="#6F6F6F"/>
<ellipse cx="0.486519" cy="0.508998" rx="0.486519" ry="0.508998" transform="matrix(0.772546 0.634959 -0.849526 0.527547 831.662 231.435)" fill="#6F6F6F"/>
<ellipse cx="0.536719" cy="0.455755" rx="0.536719" ry="0.455755" transform="matrix(0.924448 0.381307 -0.628547 0.777771 736.775 205.596)" fill="#6F6F6F"/>
<ellipse cx="0.412967" cy="0.570296" rx="0.412967" ry="0.570296" transform="matrix(-0.189777 0.981827 -0.995169 -0.0981773 963.631 135.594)" fill="#6F6F6F"/>
<ellipse cx="182.501" cy="368.363" rx="0.384212" ry="0.548978" fill="#6F6F6F"/>
<ellipse cx="322.162" cy="494.491" rx="0.576319" ry="0.411733" fill="#6F6F6F"/>
<ellipse cx="114.112" cy="97.4435" rx="0.768425" ry="0.548978" fill="#6F6F6F"/>
<ellipse cx="0.567877" cy="0.416288" rx="0.567877" ry="0.416288" transform="matrix(0.990645 0.136466 -0.260575 0.965454 470.662 154.737)" fill="#6F6F6F"/>
<ellipse cx="747.869" cy="400.754" rx="0.576319" ry="0.548978" fill="#6F6F6F"/>
<ellipse cx="967.831" cy="14.2736" rx="0.384212" ry="0.548978" fill="#6F6F6F"/>
<ellipse cx="704.453" cy="32.8014" rx="0.576319" ry="0.411733" fill="#6F6F6F"/>
<ellipse cx="57.4396" cy="91.13" rx="0.576319" ry="0.274489" fill="#6F6F6F"/>
<ellipse cx="0.558082" cy="0.42933" rx="0.558082" ry="0.42933" transform="matrix(0.971495 -0.237059 0.431329 0.902194 597.518 228.453)" fill="#6F6F6F"/>
<ellipse cx="0.567877" cy="0.416288" rx="0.567877" ry="0.416288" transform="matrix(0.990645 0.136466 -0.260575 0.965454 311.23 51.4893)" fill="#6F6F6F"/>
<ellipse cx="94.3233" cy="316.211" rx="1.34474" ry="0.823466" fill="#6F6F6F"/>
<ellipse cx="77.0353" cy="259.941" rx="0.576319" ry="0.548978" fill="#6F6F6F"/>
<ellipse cx="184.998" cy="234.962" rx="0.960531" ry="0.548978" fill="#6F6F6F"/>
<ellipse cx="0.837122" cy="0.42933" rx="0.837122" ry="0.42933" transform="matrix(0.971495 -0.237059 0.431329 0.902194 379.752 317.491)" fill="#6F6F6F"/>
<ellipse cx="773.419" cy="382.637" rx="0.768425" ry="0.274489" fill="#6F6F6F"/>
<ellipse cx="0.837122" cy="0.42933" rx="0.837122" ry="0.42933" transform="matrix(0.971495 -0.237059 0.431329 0.902194 250.066 338.755)" fill="#6F6F6F"/>
<ellipse cx="376.336" cy="422.026" rx="0.960531" ry="0.411733" fill="#6F6F6F"/>
<ellipse cx="216.694" cy="36.7823" rx="0.768425" ry="0.274489" fill="#6F6F6F"/>
<ellipse cx="16.1362" cy="276.273" rx="0.384212" ry="0.411733" fill="#6F6F6F"/>
<ellipse cx="0.558082" cy="0.643995" rx="0.558082" ry="0.643995" transform="matrix(0.971495 -0.237059 0.431329 0.902194 392.314 288.042)" fill="#6F6F6F"/>
<ellipse cx="798.201" cy="358.07" rx="0.576319" ry="0.686222" fill="#6F6F6F"/>
<ellipse cx="533.479" cy="406.929" rx="0.576319" ry="0.686222" fill="#6F6F6F"/>
<ellipse cx="0.567877" cy="0.416288" rx="0.567877" ry="0.416288" transform="matrix(0.990645 0.136466 -0.260575 0.965454 261.357 169.256)" fill="#6F6F6F"/>
<ellipse cx="766.12" cy="56.8185" rx="0.768425" ry="0.548978" fill="#6F6F6F"/>
<ellipse cx="0.558082" cy="0.42933" rx="0.558082" ry="0.42933" transform="matrix(0.971495 -0.237059 0.431329 0.902194 425.932 315.305)" fill="#6F6F6F"/>
<ellipse cx="817.602" cy="391.283" rx="0.768425" ry="0.411733" fill="#6F6F6F"/>
<ellipse cx="0.486519" cy="0.508998" rx="0.486519" ry="0.508998" transform="matrix(0.772546 0.634959 -0.849526 0.527547 840.311 226.064)" fill="#6F6F6F"/>
<ellipse cx="0.536719" cy="0.455755" rx="0.536719" ry="0.455755" transform="matrix(0.924448 0.381307 -0.628547 0.777771 742.502 198.506)" fill="#6F6F6F"/>
<ellipse cx="0.412967" cy="0.570296" rx="0.412967" ry="0.570296" transform="matrix(-0.189777 0.981827 -0.995169 -0.0981773 974.982 136.714)" fill="#6F6F6F"/>
<ellipse cx="216.694" cy="28.6842" rx="0.768425" ry="0.411733" fill="#6F6F6F"/>
<ellipse cx="16.1362" cy="268.175" rx="0.384212" ry="0.274489" fill="#6F6F6F"/>
<ellipse cx="0.567877" cy="0.416288" rx="0.567877" ry="0.416288" transform="matrix(0.990645 0.136466 -0.260575 0.965454 473.049 145.895)" fill="#6F6F6F"/>
<ellipse cx="747.869" cy="391.833" rx="0.576319" ry="0.411733" fill="#6F6F6F"/>
<ellipse cx="967.831" cy="5.35314" rx="0.384212" ry="0.411733" fill="#6F6F6F"/>
<ellipse cx="704.453" cy="23.88" rx="0.576319" ry="0.548978" fill="#6F6F6F"/>
<ellipse cx="57.4396" cy="82.2096" rx="0.576319" ry="0.411733" fill="#6F6F6F"/>
<ellipse cx="0.558082" cy="0.42933" rx="0.558082" ry="0.42933" transform="matrix(0.971495 -0.237059 0.431329 0.902194 593.443 219.931)" fill="#6F6F6F"/>
<ellipse cx="0.558082" cy="0.42933" rx="0.558082" ry="0.42933" transform="matrix(0.971495 -0.237059 0.431329 0.902194 388.424 279.908)" fill="#6F6F6F"/>
<ellipse cx="957.456" cy="446.182" rx="0.768425" ry="0.411733" fill="#6F6F6F"/>
<ellipse cx="0.563453" cy="0.422256" rx="0.563453" ry="0.422256" transform="matrix(0.982166 0.188014 -0.351172 0.936311 944.811 342.597)" fill="#6F6F6F"/>
<ellipse cx="0.445436" cy="0.545313" rx="0.445436" ry="0.545313" transform="matrix(0.563798 0.825913 -0.944324 0.329016 811.426 250.951)" fill="#6F6F6F"/>
<ellipse cx="0.412967" cy="0.570296" rx="0.412967" ry="0.570296" transform="matrix(-0.189777 0.981827 -0.995169 -0.0981773 879.809 228.144)" fill="#6F6F6F"/>
<ellipse cx="533.479" cy="398.146" rx="0.576319" ry="0.411733" fill="#6F6F6F"/>
<ellipse cx="61.8588" cy="345.581" rx="0.384212" ry="0.274489" fill="#6F6F6F"/>
<ellipse cx="0.851815" cy="0.832576" rx="0.851815" ry="0.832576" transform="matrix(0.990645 0.136466 -0.260575 0.965454 287.973 167.921)" fill="#6F6F6F"/>
<ellipse cx="792.437" cy="52.427" rx="0.960531" ry="0.823466" fill="#6F6F6F"/>
<ellipse cx="0.837122" cy="0.85866" rx="0.837122" ry="0.85866" transform="matrix(0.971495 -0.237059 0.431329 0.902194 448.107 304.704)" fill="#6F6F6F"/>
<ellipse cx="843.923" cy="386.892" rx="0.960531" ry="0.960711" fill="#6F6F6F"/>
<ellipse cx="0.729779" cy="1.018" rx="0.729779" ry="1.018" transform="matrix(0.772546 0.634959 -0.849526 0.527547 862.414 236.743)" fill="#6F6F6F"/>
<ellipse cx="0.668155" cy="1.09063" rx="0.668155" ry="1.09063" transform="matrix(0.563798 0.825913 -0.944324 0.329016 836.631 151.545)" fill="#6F6F6F"/>
<ellipse cx="0.619451" cy="1.14059" rx="0.619451" ry="1.14059" transform="matrix(-0.189777 0.981827 -0.995169 -0.0981773 978.266 155.631)" fill="#6F6F6F"/>
<ellipse cx="0.567877" cy="0.416288" rx="0.567877" ry="0.416288" transform="matrix(0.990645 0.136466 -0.260575 0.965454 260.529 176.646)" fill="#6F6F6F"/>
<ellipse cx="767.273" cy="64.2305" rx="0.384212" ry="0.274489" fill="#6F6F6F"/>
<ellipse cx="0.558082" cy="0.42933" rx="0.558082" ry="0.42933" transform="matrix(0.971495 -0.237059 0.431329 0.902194 430.35 322.013)" fill="#6F6F6F"/>
<ellipse cx="818.757" cy="398.695" rx="0.384212" ry="0.411733" fill="#6F6F6F"/>
<ellipse cx="0.486519" cy="0.508998" rx="0.486519" ry="0.508998" transform="matrix(0.772546 0.634959 -0.849526 0.527547 833.279 231.516)" fill="#6F6F6F"/>
<ellipse cx="0.536719" cy="0.455755" rx="0.536719" ry="0.455755" transform="matrix(0.924448 0.381307 -0.628547 0.777771 738.34 205.296)" fill="#6F6F6F"/>
<ellipse cx="0.412967" cy="0.570296" rx="0.412967" ry="0.570296" transform="matrix(-0.189777 0.981827 -0.995169 -0.0981773 964.609 136.517)" fill="#6F6F6F"/>
<ellipse cx="0.567877" cy="0.416288" rx="0.567877" ry="0.416288" transform="matrix(0.990645 0.136466 -0.260575 0.965454 331.523 58.4531)" fill="#6F6F6F"/>
<ellipse cx="0.558082" cy="0.42933" rx="0.558082" ry="0.42933" transform="matrix(0.971495 -0.237059 0.431329 0.902194 604.4 280.84)" fill="#6F6F6F"/>
<ellipse cx="74.7306" cy="178.418" rx="0.576319" ry="0.548978" fill="#6F6F6F"/>
<ellipse cx="0.567877" cy="0.416288" rx="0.567877" ry="0.416288" transform="matrix(0.990645 0.136466 -0.260575 0.965454 472.004 154.088)" fill="#6F6F6F"/>
<ellipse cx="748.83" cy="399.93" rx="0.384212" ry="0.274489" fill="#6F6F6F"/>
<ellipse cx="968.983" cy="13.4503" rx="0.768425" ry="0.274489" fill="#6F6F6F"/>
<ellipse cx="705.415" cy="31.84" rx="0.384212" ry="0.548978" fill="#6F6F6F"/>
<ellipse cx="58.5919" cy="90.5811" rx="0.576319" ry="0.274489" fill="#6F6F6F"/>
<ellipse cx="0.558082" cy="0.42933" rx="0.558082" ry="0.42933" transform="matrix(0.971495 -0.237059 0.431329 0.902194 393.025 287.002)" fill="#6F6F6F"/>
<ellipse cx="799.354" cy="356.973" rx="0.576319" ry="0.411733" fill="#6F6F6F"/>
<ellipse cx="534.631" cy="405.969" rx="0.576319" ry="0.274489" fill="#6F6F6F"/>
<ellipse cx="0.567877" cy="0.416288" rx="0.567877" ry="0.416288" transform="matrix(0.990645 0.136466 -0.260575 0.965454 371.602 147.76)" fill="#6F6F6F"/>
<ellipse cx="648.55" cy="407.341" rx="0.384212" ry="0.274489" fill="#6F6F6F"/>
<ellipse cx="868.704" cy="20.9986" rx="0.768425" ry="0.411733" fill="#6F6F6F"/>
<ellipse cx="605.134" cy="39.3893" rx="0.384212" ry="0.411733" fill="#6F6F6F"/>
<ellipse cx="0.558082" cy="0.42933" rx="0.558082" ry="0.42933" transform="matrix(0.971495 -0.237059 0.431329 0.902194 495.574 234.297)" fill="#6F6F6F"/>
<ellipse cx="0.553852" cy="0.434773" rx="0.553852" ry="0.434773" transform="matrix(0.962787 -0.270261 0.481904 0.876224 500.275 191.251)" fill="#6F6F6F"/>
<ellipse cx="809.919" cy="101.012" rx="0.384212" ry="0.274489" fill="#6F6F6F"/>
<ellipse cx="733.077" cy="60.9367" rx="0.768425" ry="0.548978" fill="#6F6F6F"/>
<ellipse cx="86.0639" cy="119.54" rx="0.384212" ry="0.411733" fill="#6F6F6F"/>
<ellipse cx="0.567877" cy="0.416288" rx="0.567877" ry="0.416288" transform="matrix(0.990645 0.136466 -0.260575 0.965454 194.859 136.753)" fill="#6F6F6F"/>
<ellipse cx="0.558082" cy="0.42933" rx="0.558082" ry="0.42933" transform="matrix(0.971495 -0.237059 0.431329 0.902194 345.621 310.681)" fill="#6F6F6F"/>
<ellipse cx="743.835" cy="368.363" rx="0.768425" ry="0.548978" fill="#6F6F6F"/>
<ellipse cx="0.553852" cy="0.434773" rx="0.553852" ry="0.434773" transform="matrix(0.962787 -0.270261 0.481904 0.876224 495.666 182.87)" fill="#6F6F6F"/>
<ellipse cx="809.919" cy="94.9727" rx="0.384212" ry="0.274489" fill="#6F6F6F"/>
<ellipse cx="733.077" cy="52.0152" rx="0.768425" ry="0.411733" fill="#6F6F6F"/>
<ellipse cx="86.0639" cy="110.482" rx="0.384212" ry="0.411733" fill="#6F6F6F"/>
<ellipse cx="0.412834" cy="0.570393" rx="0.412834" ry="0.570393" transform="matrix(0.186332 -0.982487 0.995348 0.0963479 458.146 220.214)" fill="#6F6F6F"/>
<ellipse cx="725.009" cy="465.396" rx="0.768425" ry="0.411733" fill="#6F6F6F"/>
<ellipse cx="944.971" cy="79.0518" rx="0.576319" ry="0.274489" fill="#6F6F6F"/>
<ellipse cx="681.206" cy="97.4435" rx="0.384212" ry="0.548978" fill="#6F6F6F"/>
<ellipse cx="0.431043" cy="0.55676" rx="0.431043" ry="0.55676" transform="matrix(0.448071 -0.893998 0.968804 0.247829 514.209 241.818)" fill="#6F6F6F"/>
<ellipse cx="0.553852" cy="0.652159" rx="0.553852" ry="0.652159" transform="matrix(0.962787 -0.270261 0.481904 0.876224 500.715 189.809)" fill="#6F6F6F"/>
<ellipse cx="734.228" cy="59.9762" rx="0.384212" ry="0.411733" fill="#6F6F6F"/>
<ellipse cx="0.558082" cy="0.42933" rx="0.558082" ry="0.42933" transform="matrix(0.971495 -0.237059 0.431329 0.902194 301.223 274.802)" fill="#6F6F6F"/>
<ellipse cx="877.54" cy="421.203" rx="0.384212" ry="0.411733" fill="#6F6F6F"/>
<ellipse cx="0.486519" cy="0.508998" rx="0.486519" ry="0.508998" transform="matrix(0.772546 0.634959 -0.849526 0.527547 847.836 277.794)" fill="#6F6F6F"/>
<ellipse cx="0.445436" cy="0.545313" rx="0.445436" ry="0.545313" transform="matrix(0.563798 0.825913 -0.944324 0.329016 807.678 188.501)" fill="#6F6F6F"/>
<ellipse cx="0.412967" cy="0.570296" rx="0.412967" ry="0.570296" transform="matrix(-0.189777 0.981827 -0.995169 -0.0981773 925.4 174.794)" fill="#6F6F6F"/>
<ellipse cx="586.308" cy="502.177" rx="0.384212" ry="0.411733" fill="#6F6F6F"/>
<ellipse cx="453.372" cy="373.167" rx="0.384212" ry="0.411733" fill="#6F6F6F"/>
<ellipse cx="857.944" cy="450.162" rx="0.768425" ry="0.274489" fill="#6F6F6F"/>
<ellipse cx="0.563453" cy="0.422256" rx="0.563453" ry="0.422256" transform="matrix(0.982166 0.188014 -0.351172 0.936311 847.035 328.118)" fill="#6F6F6F"/>
<ellipse cx="0.536719" cy="0.455755" rx="0.536719" ry="0.455755" transform="matrix(0.924448 0.381307 -0.628547 0.777771 735.984 263.876)" fill="#6F6F6F"/>
<ellipse cx="0.412967" cy="0.570296" rx="0.412967" ry="0.570296" transform="matrix(-0.189777 0.981827 -0.995169 -0.0981773 887.77 157.033)" fill="#6F6F6F"/>
<ellipse cx="206.323" cy="272.567" rx="0.768425" ry="0.274489" fill="#6F6F6F"/>
<ellipse cx="346.175" cy="398.695" rx="0.768425" ry="0.411733" fill="#6F6F6F"/>
<ellipse cx="469.892" cy="23.3321" rx="0.384212" ry="0.274489" fill="#6F6F6F"/>
<ellipse cx="176.738" cy="51.6036" rx="0.384212" ry="0.274489" fill="#6F6F6F"/>
<ellipse cx="321.008" cy="363.423" rx="0.576319" ry="0.274489" fill="#6F6F6F"/>
<ellipse cx="460.671" cy="489.55" rx="0.768425" ry="0.411733" fill="#6F6F6F"/>
<ellipse cx="202.287" cy="326.642" rx="0.576319" ry="0.274489" fill="#6F6F6F"/>
<ellipse cx="343.87" cy="498.471" rx="0.768425" ry="0.274489" fill="#6F6F6F"/>
<ellipse cx="0.567877" cy="0.416288" rx="0.567877" ry="0.416288" transform="matrix(0.990645 0.136466 -0.260575 0.965454 578.562 204.616)" fill="#6F6F6F"/>
<ellipse cx="0.567877" cy="0.416288" rx="0.567877" ry="0.416288" transform="matrix(0.990645 0.136466 -0.260575 0.965454 311.615 91.1416)" fill="#6F6F6F"/>
<ellipse cx="0.492418" cy="0.503293" rx="0.492418" ry="0.503293" transform="matrix(0.794515 -0.607244 0.831616 0.555352 215.564 337.072)" fill="#6F6F6F"/>
<ellipse cx="356.55" cy="502.589" rx="0.384212" ry="0.274489" fill="#6F6F6F"/>
<ellipse cx="96.4369" cy="353.679" rx="0.384212" ry="0.411733" fill="#6F6F6F"/>
<ellipse cx="0.553852" cy="0.434773" rx="0.553852" ry="0.434773" transform="matrix(0.962787 -0.270261 0.481904 0.876224 498.865 169.658)" fill="#6F6F6F"/>
<ellipse cx="742.681" cy="40.4869" rx="0.384212" ry="0.411733" fill="#6F6F6F"/>
<ellipse cx="0.837122" cy="0.85866" rx="0.837122" ry="0.85866" transform="matrix(0.971495 -0.237059 0.431329 0.902194 415.531 255.56)" fill="#6F6F6F"/>
<ellipse cx="994.343" cy="429.849" rx="0.768425" ry="0.823466" fill="#6F6F6F"/>
<ellipse cx="0.84518" cy="0.844512" rx="0.84518" ry="0.844512" transform="matrix(0.982166 0.188014 -0.351172 0.936311 986.309 333.167)" fill="#6F6F6F"/>
<ellipse cx="0.668155" cy="1.09063" rx="0.668155" ry="1.09063" transform="matrix(0.563798 0.825913 -0.944324 0.329016 848.609 267.14)" fill="#6F6F6F"/>
<ellipse cx="0.619451" cy="1.14059" rx="0.619451" ry="1.14059" transform="matrix(-0.189777 0.981827 -0.995169 -0.0981773 898.062 256.389)" fill="#6F6F6F"/>
<ellipse cx="570.748" cy="381.814" rx="0.960531" ry="0.823466" fill="#6F6F6F"/>
<ellipse cx="0.837122" cy="0.85866" rx="0.837122" ry="0.85866" transform="matrix(0.971495 -0.237059 0.431329 0.902194 361.404 260.117)" fill="#6F6F6F"/>
<ellipse cx="941.127" cy="421.614" rx="0.960531" ry="0.823466" fill="#6F6F6F"/>
<ellipse cx="0.729779" cy="1.018" rx="0.729779" ry="1.018" transform="matrix(0.772546 0.634959 -0.849526 0.527547 889.557 312.084)" fill="#6F6F6F"/>
<ellipse cx="0.668155" cy="1.09063" rx="0.668155" ry="1.09063" transform="matrix(0.563798 0.825913 -0.944324 0.329016 835.553 229.337)" fill="#6F6F6F"/>
<ellipse cx="0.619451" cy="1.14059" rx="0.619451" ry="1.14059" transform="matrix(-0.189777 0.981827 -0.995169 -0.0981773 916.701 219.8)" fill="#6F6F6F"/>
<ellipse cx="649.894" cy="502.726" rx="0.960531" ry="0.960711" fill="#6F6F6F"/>
<ellipse cx="517.341" cy="373.716" rx="0.960531" ry="0.960711" fill="#6F6F6F"/>
<ellipse cx="396.122" cy="0.274489" rx="0.384212" ry="0.274489" fill="#6F6F6F"/>
<ellipse cx="127.175" cy="36.2325" rx="0.384212" ry="0.274489" fill="#6F6F6F"/>
<ellipse cx="130.249" cy="349.562" rx="0.768425" ry="0.411733" fill="#6F6F6F"/>
<ellipse cx="0.428877" cy="0.55843" rx="0.428877" ry="0.55843" transform="matrix(0.426754 -0.904368 0.9722 0.23415 447.086 212.641)" fill="#6F6F6F"/>
<ellipse cx="746.717" cy="469.513" rx="0.576319" ry="0.411733" fill="#6F6F6F"/>
<ellipse cx="966.871" cy="83.0328" rx="0.576319" ry="0.411733" fill="#6F6F6F"/>
<ellipse cx="703.108" cy="101.561" rx="0.768425" ry="0.548978" fill="#6F6F6F"/>
<ellipse cx="136.779" cy="127.088" rx="0.384212" ry="0.274489" fill="#6F6F6F"/>
<ellipse cx="0.431043" cy="0.55676" rx="0.431043" ry="0.55676" transform="matrix(0.448071 -0.893998 0.968804 0.247829 526.941 228.554)" fill="#6F6F6F"/>
<ellipse cx="0.567877" cy="0.416288" rx="0.567877" ry="0.416288" transform="matrix(0.990645 0.136466 -0.260575 0.965454 521.93 146.376)" fill="#6F6F6F"/>
<ellipse cx="752.288" cy="17.5675" rx="0.768425" ry="0.274489" fill="#6F6F6F"/>
<ellipse cx="207.091" cy="25.8019" rx="0.384212" ry="0.548978" fill="#6F6F6F"/>
<ellipse cx="6.33999" cy="265.294" rx="0.576319" ry="0.411733" fill="#6F6F6F"/>
<ellipse cx="0.567877" cy="0.416288" rx="0.567877" ry="0.416288" transform="matrix(0.990645 0.136466 -0.260575 0.965454 203.664 140.884)" fill="#6F6F6F"/>
<ellipse cx="0.558082" cy="0.42933" rx="0.558082" ry="0.42933" transform="matrix(0.971495 -0.237059 0.431329 0.902194 356.135 311.143)" fill="#6F6F6F"/>
<ellipse cx="753.633" cy="371.246" rx="0.576319" ry="0.411733" fill="#6F6F6F"/>
<ellipse cx="407.265" cy="67.2501" rx="0.384212" ry="0.274489" fill="#6F6F6F"/>
<ellipse cx="127.175" cy="30.7423" rx="0.384212" ry="0.274489" fill="#6F6F6F"/>
<ellipse cx="0.412834" cy="0.570393" rx="0.412834" ry="0.570393" transform="matrix(0.186332 -0.982487 0.995348 0.0963479 463.428 213.704)" fill="#6F6F6F"/>
<ellipse cx="734.615" cy="468.278" rx="0.384212" ry="0.548978" fill="#6F6F6F"/>
<ellipse cx="954.766" cy="81.9352" rx="0.768425" ry="0.411733" fill="#6F6F6F"/>
<ellipse cx="691.197" cy="100.326" rx="0.384212" ry="0.411733" fill="#6F6F6F"/>
<ellipse cx="128.71" cy="126.265" rx="0.384212" ry="0.274489" fill="#6F6F6F"/>
<ellipse cx="0.431043" cy="0.55676" rx="0.431043" ry="0.55676" transform="matrix(0.448071 -0.893998 0.968804 0.247829 521.268 236.232)" fill="#6F6F6F"/>
<ellipse cx="80.3002" cy="212.455" rx="0.384212" ry="0.274489" fill="#6F6F6F"/>
<ellipse cx="0.837122" cy="0.42933" rx="0.837122" ry="0.42933" transform="matrix(0.971495 -0.237059 0.431329 0.902194 312.465 275.519)" fill="#6F6F6F"/>
<ellipse cx="887.724" cy="424.497" rx="0.960531" ry="0.411733" fill="#6F6F6F"/>
<ellipse cx="0.729779" cy="0.508998" rx="0.729779" ry="0.508998" transform="matrix(0.772546 0.634959 -0.849526 0.527547 851.141 285.503)" fill="#6F6F6F"/>
<ellipse cx="0.668155" cy="0.545313" rx="0.668155" ry="0.545313" transform="matrix(0.563798 0.825913 -0.944324 0.329016 808.08 196.559)" fill="#6F6F6F"/>
<ellipse cx="0.619451" cy="0.570296" rx="0.619451" ry="0.570296" transform="matrix(-0.189777 0.981827 -0.995169 -0.0981773 919.449 181.645)" fill="#6F6F6F"/>
<ellipse cx="464.13" cy="376.599" rx="0.768425" ry="0.274489" fill="#6F6F6F"/>
<ellipse cx="868.513" cy="453.592" rx="0.960531" ry="0.411733" fill="#6F6F6F"/>
<ellipse cx="0.84518" cy="0.422256" rx="0.84518" ry="0.422256" transform="matrix(0.982166 0.188014 -0.351172 0.936311 855.811 333.187)" fill="#6F6F6F"/>
<ellipse cx="0.805079" cy="0.455755" rx="0.805079" ry="0.455755" transform="matrix(0.924448 0.381307 -0.628547 0.777771 742.623 270.396)" fill="#6F6F6F"/>
<ellipse cx="0.619451" cy="0.570296" rx="0.619451" ry="0.570296" transform="matrix(-0.189777 0.981827 -0.995169 -0.0981773 881.818 163.884)" fill="#6F6F6F"/>
<ellipse cx="0.567877" cy="0.416288" rx="0.567877" ry="0.416288" transform="matrix(0.990645 0.136466 -0.260575 0.965454 524.1 138.338)" fill="#6F6F6F"/>
<ellipse cx="752.288" cy="9.47033" rx="0.768425" ry="0.411733" fill="#6F6F6F"/>
<ellipse cx="7.10757" cy="345.032" rx="0.576319" ry="0.548978" fill="#6F6F6F"/>
<ellipse cx="216.119" cy="275.449" rx="0.576319" ry="0.411733" fill="#6F6F6F"/>
<ellipse cx="355.973" cy="401.577" rx="0.576319" ry="0.274489" fill="#6F6F6F"/>
<ellipse cx="0.558082" cy="0.42933" rx="0.558082" ry="0.42933" transform="matrix(0.971495 -0.237059 0.431329 0.902194 498.201 208.137)" fill="#6F6F6F"/>
<ellipse cx="759.203" cy="116.657" rx="0.384212" ry="0.548978" fill="#6F6F6F"/>
<ellipse cx="504.47" cy="31.5666" rx="0.384212" ry="0.548978" fill="#6F6F6F"/>
<ellipse cx="331.577" cy="366.855" rx="0.768425" ry="0.411733" fill="#6F6F6F"/>
<ellipse cx="471.236" cy="492.707" rx="0.960531" ry="0.274489" fill="#6F6F6F"/>
<ellipse cx="0.441091" cy="0.548833" rx="0.441091" ry="0.548833" transform="matrix(0.532656 -0.846332 0.952084 0.305835 264.02 370.204)" fill="#6F6F6F"/>
<ellipse cx="378.258" cy="506.706" rx="0.576319" ry="0.548978" fill="#6F6F6F"/>
<ellipse cx="0.567877" cy="0.416288" rx="0.567877" ry="0.416288" transform="matrix(0.990645 0.136466 -0.260575 0.965454 610.146 217.304)" fill="#6F6F6F"/>
<ellipse cx="0.567877" cy="0.416288" rx="0.567877" ry="0.416288" transform="matrix(0.990645 0.136466 -0.260575 0.965454 320.42 95.2734)" fill="#6F6F6F"/>
<ellipse cx="584.58" cy="362.737" rx="0.576319" ry="0.411733" fill="#6F6F6F"/>
<ellipse cx="0.492418" cy="0.503293" rx="0.492418" ry="0.503293" transform="matrix(0.794515 -0.607244 0.831616 0.555352 225.146 333.946)" fill="#6F6F6F"/>
<ellipse cx="366.346" cy="505.471" rx="0.576319" ry="0.411733" fill="#6F6F6F"/>
<ellipse cx="106.044" cy="356.561" rx="0.768425" ry="0.548978" fill="#6F6F6F"/>
<ellipse cx="0.837122" cy="0.42933" rx="0.837122" ry="0.42933" transform="matrix(0.971495 -0.237059 0.431329 0.902194 427.684 256.919)" fill="#6F6F6F"/>
<ellipse cx="815.875" cy="363.148" rx="0.576319" ry="0.274489" fill="#6F6F6F"/>
<ellipse cx="0.84518" cy="0.422256" rx="0.84518" ry="0.422256" transform="matrix(0.982166 0.188014 -0.351172 0.936311 995.34 339.133)" fill="#6F6F6F"/>
<ellipse cx="0.668155" cy="0.545313" rx="0.668155" ry="0.545313" transform="matrix(0.563798 0.825913 -0.944324 0.329016 848.232 275.924)" fill="#6F6F6F"/>
<ellipse cx="0.619451" cy="0.570296" rx="0.619451" ry="0.570296" transform="matrix(-0.189777 0.981827 -0.995169 -0.0981773 890.896 263.533)" fill="#6F6F6F"/>
<ellipse cx="581.505" cy="385.519" rx="0.960531" ry="0.411733" fill="#6F6F6F"/>
<ellipse cx="405.92" cy="3.29409" rx="0.576319" ry="0.548978" fill="#6F6F6F"/>
<ellipse cx="133.706" cy="38.1544" rx="0.384212" ry="0.274489" fill="#6F6F6F"/>
<ellipse cx="0.567877" cy="0.416288" rx="0.567877" ry="0.416288" transform="matrix(0.990645 0.136466 -0.260575 0.965454 322.588 87.2354)" fill="#6F6F6F"/>
<ellipse cx="584.58" cy="354.502" rx="0.576319" ry="0.411733" fill="#6F6F6F"/>
<ellipse cx="139.853" cy="352.444" rx="0.384212" ry="0.548978" fill="#6F6F6F"/>
<ellipse cx="0.553852" cy="0.434773" rx="0.553852" ry="0.434773" transform="matrix(0.962787 -0.270261 0.481904 0.876224 517.682 171.413)" fill="#6F6F6F"/>
<ellipse cx="759.203" cy="47.0748" rx="0.384212" ry="0.411733" fill="#6F6F6F"/>
<ellipse cx="413.796" cy="69.171" rx="0.384212" ry="0.274489" fill="#6F6F6F"/>
<ellipse cx="133.706" cy="32.6641" rx="0.384212" ry="0.274489" fill="#6F6F6F"/>
<ellipse cx="139.853" cy="344.209" rx="0.384212" ry="0.274489" fill="#6F6F6F"/>
<ellipse cx="0.553852" cy="0.434773" rx="0.553852" ry="0.434773" transform="matrix(0.962787 -0.270261 0.481904 0.876224 513.492 163.794)" fill="#6F6F6F"/>
<ellipse cx="759.203" cy="38.8395" rx="0.384212" ry="0.411733" fill="#6F6F6F"/>
<ellipse cx="16.9051" cy="347.915" rx="0.768425" ry="0.411733" fill="#6F6F6F"/>
<ellipse cx="0.837122" cy="0.85866" rx="0.837122" ry="0.85866" transform="matrix(0.971495 -0.237059 0.431329 0.902194 380.818 262.732)" fill="#6F6F6F"/>
<ellipse cx="958.418" cy="428.477" rx="0.960531" ry="0.823466" fill="#6F6F6F"/>
<ellipse cx="0.84518" cy="0.844512" rx="0.84518" ry="0.844512" transform="matrix(0.982166 0.188014 -0.351172 0.936311 951.887 325.307)" fill="#6F6F6F"/>
<ellipse cx="0.668155" cy="1.09063" rx="0.668155" ry="1.09063" transform="matrix(0.563798 0.825913 -0.944324 0.329016 834.334 243.424)" fill="#6F6F6F"/>
<ellipse cx="0.619451" cy="1.14059" rx="0.619451" ry="1.14059" transform="matrix(-0.189777 0.981827 -0.995169 -0.0981773 904.703 231.013)" fill="#6F6F6F"/>
<ellipse cx="534.44" cy="380.579" rx="0.768425" ry="0.686222" fill="#6F6F6F"/>
<ellipse cx="0.567877" cy="0.416288" rx="0.567877" ry="0.416288" transform="matrix(0.990645 0.136466 -0.260575 0.965454 441.494 89.8584)" fill="#6F6F6F"/>
<ellipse cx="701.956" cy="340.915" rx="0.384212" ry="0.548978" fill="#6F6F6F"/>
<ellipse cx="11.5262" cy="31.5666" rx="0.768425" ry="0.548978" fill="#6F6F6F"/>
<ellipse cx="0.431043" cy="0.55676" rx="0.431043" ry="0.55676" transform="matrix(0.448071 -0.893998 0.968804 0.247829 518.725 236.452)" fill="#6F6F6F"/>
<ellipse cx="0.567877" cy="0.416288" rx="0.567877" ry="0.416288" transform="matrix(0.990645 0.136466 -0.260575 0.965454 411.992 164.579)" fill="#6F6F6F"/>
<ellipse cx="692.735" cy="418.321" rx="0.768425" ry="0.548978" fill="#6F6F6F"/>
<ellipse cx="912.888" cy="31.84" rx="0.384212" ry="0.548978" fill="#6F6F6F"/>
<ellipse cx="649.319" cy="50.3678" rx="0.768425" ry="0.411733" fill="#6F6F6F"/>
<ellipse cx="2.30609" cy="84.2677" rx="0.384212" ry="0.548978" fill="#6F6F6F"/>
<ellipse cx="0.558082" cy="0.42933" rx="0.558082" ry="0.42933" transform="matrix(0.971495 -0.237059 0.431329 0.902194 542.32 234.569)" fill="#6F6F6F"/>
<ellipse cx="514.075" cy="34.4479" rx="0.768425" ry="0.411733" fill="#6F6F6F"/>
<ellipse cx="248.203" cy="383.461" rx="0.384212" ry="0.548978" fill="#6F6F6F"/>
<ellipse cx="388.054" cy="509.726" rx="0.384212" ry="0.274489" fill="#6F6F6F"/>
<ellipse cx="638.559" cy="191.181" rx="0.768425" ry="0.411733" fill="#6F6F6F"/>
<defs>
<linearGradient id="paint0_linear_748_3" x1="498.5" y1="0" x2="498.5" y2="510" gradientUnits="userSpaceOnUse">
<stop stop-color="#020109"/>
<stop offset="1" stop-color="#100B39"/>
</linearGradient>
</defs>
</svg>
