<svg width="1450" height="1000" viewBox="0 0 1450 1000" fill="none" xmlns="http://www.w3.org/2000/svg">
<rect width="1450" height="1000" fill="#345ECC"/>
<path fill-rule="evenodd" clip-rule="evenodd" d="M730 189.5C730 152.773 759.773 123 796.5 123H1323.5C1360.23 123 1390 152.773 1390 189.5C1390 226.227 1360.23 256 1323.5 256H1207.5C1234.29 256 1256 277.714 1256 304.5C1256 331.286 1234.29 353 1207.5 353H912.5C885.714 353 864 331.286 864 304.5C864 277.714 885.714 256 912.5 256H796.5C759.773 256 730 226.227 730 189.5ZM96 318C96 274.922 130.922 240 174 240H509C552.078 240 587 274.922 587 318C587 361.078 552.078 396 509 396H570C594.853 396 615 416.147 615 441C615 465.853 594.853 486 570 486H413C388.147 486 368 465.853 368 441C368 416.147 388.147 396 413 396H174C130.922 396 96 361.078 96 318ZM204.5 790C167.773 790 138 819.773 138 856.5C138 893.227 167.773 923 204.5 923H424.5C461.227 923 491 893.227 491 856.5C491 819.773 461.227 790 424.5 790H306.5C333.286 790 355 768.286 355 741.5C355 714.714 333.286 693 306.5 693H109.5C82.7141 693 61 714.714 61 741.5C61 768.286 82.7141 790 109.5 790H204.5ZM739.5 637C703.325 637 674 666.325 674 702.5C674 738.675 703.325 768 739.5 768H790C765.7 768 746 787.699 746 812C746 836.301 765.7 856 790 856H909C933.3 856 953 836.301 953 812C953 787.699 933.3 768 909 768H932.5C968.675 768 998 738.675 998 702.5C998 666.325 968.675 637 932.5 637H739.5ZM1161.5 574C1128.64 574 1102 600.639 1102 633.5C1102 666.361 1128.64 693 1161.5 693H1272.5C1305.36 693 1332 666.361 1332 633.5C1332 600.639 1305.36 574 1272.5 574H1161.5Z" fill="#2ACF3B"/>
</svg>
