<svg width="2900" height="1000" viewBox="0 0 2900 1000" fill="none" xmlns="http://www.w3.org/2000/svg">
<rect width="1450" height="1000" fill="#345ECC"/>
<path fill-rule="evenodd" clip-rule="evenodd" d="M721.5 247C684.773 247 655 276.773 655 313.5C655 350.227 684.773 380 721.5 380H837.5C810.714 380 789 401.714 789 428.5C789 455.286 810.714 477 837.5 477H1132.5C1159.29 477 1181 455.286 1181 428.5C1181 401.714 1159.29 380 1132.5 380H1248.5C1285.23 380 1315 350.227 1315 313.5C1315 276.773 1285.23 247 1248.5 247H721.5ZM178 257C134.922 257 100 291.922 100 335C100 378.078 134.922 413 178 413H235C210.147 413 190 433.147 190 458C190 482.853 210.147 503 235 503H392C416.853 503 437 482.853 437 458C437 433.147 416.853 413 392 413H513C556.078 413 591 378.078 591 335C591 291.922 556.078 257 513 257H178ZM280 602.5C280 565.773 309.773 536 346.5 536H460.5C497.227 536 527 565.773 527 602.5C527 639.227 497.227 669 460.5 669H346.5C309.773 669 280 639.227 280 602.5ZM668.5 503C632.325 503 603 532.325 603 568.5C603 604.675 632.325 634 668.5 634H719C694.699 634 675 653.7 675 678C675 702.3 694.699 722 719 722H838C862.301 722 882 702.3 882 678C882 653.7 862.301 634 838 634H861.5C897.675 634 927 604.675 927 568.5C927 532.325 897.675 503 861.5 503H668.5ZM1180.5 634C1147.64 634 1121 660.639 1121 693.5C1121 726.361 1147.64 753 1180.5 753H1291.5C1324.36 753 1351 726.361 1351 693.5C1351 660.639 1324.36 634 1291.5 634H1180.5Z" fill="#2ACF3B"/>
<path d="M1450 0H2900V1000H1450V0Z" fill="#345ECC"/>
<path d="M2171.5 247C2134.77 247 2105 276.773 2105 313.5C2105 350.227 2134.77 380 2171.5 380H2287.5C2260.71 380 2239 401.714 2239 428.5C2239 455.286 2260.71 477 2287.5 477H2582.5C2609.29 477 2631 455.286 2631 428.5C2631 401.714 2609.29 380 2582.5 380H2698.5C2735.23 380 2765 350.227 2765 313.5C2765 276.773 2735.23 247 2698.5 247H2171.5Z" fill="#2ACF3B"/>
<path d="M1628 257C1584.92 257 1550 291.922 1550 335C1550 378.078 1584.92 413 1628 413H1685C1660.15 413 1640 433.147 1640 458C1640 482.853 1660.15 503 1685 503H1842C1866.85 503 1887 482.853 1887 458C1887 433.147 1866.85 413 1842 413H1963C2006.08 413 2041 378.078 2041 335C2041 291.922 2006.08 257 1963 257H1628Z" fill="#2ACF3B"/>
<path d="M1730 602.5C1730 565.773 1759.77 536 1796.5 536H1910.5C1947.23 536 1977 565.773 1977 602.5C1977 639.227 1947.23 669 1910.5 669H1796.5C1759.77 669 1730 639.227 1730 602.5Z" fill="#2ACF3B"/>
<path d="M2118.5 503C2082.33 503 2053 532.325 2053 568.5C2053 604.675 2082.33 634 2118.5 634H2169C2144.7 634 2125 653.699 2125 678C2125 702.301 2144.7 722 2169 722H2288C2312.3 722 2332 702.301 2332 678C2332 653.699 2312.3 634 2288 634H2311.5C2347.67 634 2377 604.675 2377 568.5C2377 532.325 2347.67 503 2311.5 503H2118.5Z" fill="#2ACF3B"/>
<path d="M2630.5 634C2597.64 634 2571 660.639 2571 693.5C2571 726.361 2597.64 753 2630.5 753H2741.5C2774.36 753 2801 726.361 2801 693.5C2801 660.639 2774.36 634 2741.5 634H2630.5Z" fill="#2ACF3B"/>
<path d="M1450 0H2900V1000H1450V0Z" fill="black" fill-opacity="0.5"/>
</svg>
