<svg width="1000" height="1000" viewBox="0 0 1000 1000" fill="none" xmlns="http://www.w3.org/2000/svg">
<mask id="mask0_733_492" style="mask-type:alpha" maskUnits="userSpaceOnUse" x="35" y="35" width="930" height="930">
<circle cx="500" cy="500" r="465" fill="#D9D9D9"/>
</mask>
<g mask="url(#mask0_733_492)">
<circle cx="500" cy="500" r="357.5" stroke="#B22222" stroke-width="285"/>
</g>
<mask id="mask1_733_492" style="mask-type:alpha" maskUnits="userSpaceOnUse" x="0" y="0" width="1000" height="1000">
<circle cx="500" cy="500" r="482.5" stroke="black" stroke-width="35"/>
</mask>
<g mask="url(#mask1_733_492)">
<mask id="path-4-inside-1_733_492" fill="white">
<path d="M0 500C9.62237e-06 389.933 36.3187 282.941 103.323 195.619C170.328 108.297 264.274 45.5246 370.59 17.0371C476.907 -11.4504 589.653 -4.06063 691.342 38.0602C793.03 80.1811 877.979 154.679 933.013 250L500 500L0 500Z"/>
</mask>
<path d="M0 500C9.62237e-06 389.933 36.3187 282.941 103.323 195.619C170.328 108.297 264.274 45.5246 370.59 17.0371C476.907 -11.4504 589.653 -4.06063 691.342 38.0602C793.03 80.1811 877.979 154.679 933.013 250L500 500L0 500Z" stroke="#996742" stroke-width="70" mask="url(#path-4-inside-1_733_492)"/>
</g>
</svg>
