<svg width="1000" height="1000" viewBox="0 0 1000 1000" fill="none" xmlns="http://www.w3.org/2000/svg">
<path fill-rule="evenodd" clip-rule="evenodd" d="M285 500H380H500L603.923 440L686.226 392.482C649.049 328.228 579.573 285 500 285C381.259 285 285 381.259 285 500ZM502.698 0.00714111C500.741 -0.00344849 498.782 -0.00253296 496.824 0.0098877C497.882 0.0032959 498.941 0 500 0C500.9 0 501.799 0.00238037 502.698 0.00714111ZM153.989 139.06C148.982 143.862 144.075 148.766 139.27 153.771C144.079 148.761 148.986 143.856 153.989 139.06Z" fill="#E15822"/>
<mask id="mask0_736_4" style="mask-type:alpha" maskUnits="userSpaceOnUse" x="35" y="35" width="698" height="465">
<path d="M35 500C35 418.375 56.4859 338.189 97.2982 267.5C138.11 196.811 196.811 138.11 267.5 97.2982C338.189 56.4859 418.375 35 500 35C581.625 35 661.811 56.4859 732.5 97.2982L500 500L35 500Z" fill="#D9D9D9"/>
</mask>
<g mask="url(#mask0_736_4)">
<circle cx="500" cy="500" r="357.5" stroke="#B22222" stroke-width="285"/>
</g>
<mask id="mask1_736_4" style="mask-type:alpha" maskUnits="userSpaceOnUse" x="0" y="0" width="1000" height="1000">
<circle cx="500" cy="500" r="482.5" stroke="black" stroke-width="35"/>
</mask>
<g mask="url(#mask1_736_4)">
<mask id="path-5-inside-1_736_4" fill="white">
<path d="M0 500C1.1593e-05 367.392 52.6784 240.215 146.447 146.447C240.215 52.6784 367.392 -1.58134e-06 500 0V500L0 500Z"/>
</mask>
<path d="M0 500C1.1593e-05 367.392 52.6784 240.215 146.447 146.447C240.215 52.6784 367.392 -1.58134e-06 500 0V500L0 500Z" stroke="#996742" stroke-width="70" mask="url(#path-5-inside-1_736_4)"/>
</g>
<path fill-rule="evenodd" clip-rule="evenodd" d="M620 500C620 566.274 566.274 620 500 620C433.726 620 380 566.274 380 500C380 433.726 433.726 380 500 380C566.274 380 620 433.726 620 500Z" fill="#F1BC32"/>
</svg>
