<svg width="1000" height="1000" viewBox="0 0 1000 1000" fill="none" xmlns="http://www.w3.org/2000/svg">
<path fill-rule="evenodd" clip-rule="evenodd" d="M620 500C620 566.274 566.274 620 500 620C433.726 620 380 566.274 380 500C380 433.726 433.726 380 500 380C566.274 380 620 433.726 620 500ZM715 500C715 618.741 618.741 715 500 715C381.259 715 285 618.741 285 500C285 381.259 381.259 285 500 285C618.741 285 715 381.259 715 500Z" fill="#E15822"/>
<mask id="mask0_733_508" style="mask-type:alpha" maskUnits="userSpaceOnUse" x="35" y="35" width="868" height="465">
<path d="M35 500C35 397.638 68.7764 298.135 131.091 216.926C193.405 135.716 280.775 77.3378 379.649 50.8445C478.524 24.3512 583.377 31.2236 677.948 70.396C772.518 109.568 851.521 178.851 902.702 267.5L500 500L35 500Z" fill="#D9D9D9"/>
</mask>
<g mask="url(#mask0_733_508)">
<circle cx="500" cy="500" r="357.5" stroke="#B22222" stroke-width="285"/>
</g>
<mask id="mask1_733_508" style="mask-type:alpha" maskUnits="userSpaceOnUse" x="0" y="0" width="1000" height="1000">
<circle cx="500" cy="500" r="482.5" stroke="black" stroke-width="35"/>
</mask>
<g mask="url(#mask1_733_508)">
<mask id="path-5-inside-1_733_508" fill="white">
<path d="M0 500C7.67295e-06 412.232 23.1031 326.01 66.9873 250C110.871 173.99 173.99 110.871 250 66.9873C326.01 23.1031 412.232 4.18477e-06 500 0C587.768 -4.18477e-06 673.99 23.1031 750 66.9873L500 500L0 500Z"/>
</mask>
<path d="M0 500C7.67295e-06 412.232 23.1031 326.01 66.9873 250C110.871 173.99 173.99 110.871 250 66.9873C326.01 23.1031 412.232 4.18477e-06 500 0C587.768 -4.18477e-06 673.99 23.1031 750 66.9873L500 500L0 500Z" stroke="#996742" stroke-width="70" mask="url(#path-5-inside-1_733_508)"/>
</g>
</svg>
