<svg width="2900" height="1001" viewBox="0 0 2900 1001" fill="none" xmlns="http://www.w3.org/2000/svg">
<rect x="1450" y="1" width="1450" height="998.623" fill="#D7DAED"/>
<path fill-rule="evenodd" clip-rule="evenodd" d="M2572.5 224C2651.2 224 2715 160.201 2715 81.5C2715 51.6287 2705.81 23.9041 2690.1 1H2454.9C2439.19 23.9041 2430 51.6287 2430 81.5C2430 160.201 2493.8 224 2572.5 224Z" fill="#9CA7D5"/>
<circle cx="1808.5" cy="384.5" r="87.5" fill="#9CA7D5"/>
<path fill-rule="evenodd" clip-rule="evenodd" d="M2498.31 1001H2286.69C2218.34 963.546 2172 890.935 2172 807.5C2172 685.721 2270.72 587 2392.5 587C2514.28 587 2613 685.721 2613 807.5C2613 890.935 2566.66 963.546 2498.31 1001Z" fill="#9CA7D5"/>
<circle cx="2136" cy="81" r="36" fill="#9CA7D5"/>
<circle cx="1672" cy="916" r="60" fill="#9CA7D5"/>
<path d="M0 1H1450V999.623H0V1Z" fill="#D7DAED"/>
<path d="M1122.5 224C1201.2 224 1265 160.201 1265 81.5C1265 51.6287 1255.81 23.9041 1240.1 1H1004.9C989.191 23.9041 980 51.6287 980 81.5C980 160.201 1043.8 224 1122.5 224Z" fill="#9CA7D5"/>
<path d="M446 384.5C446 432.825 406.825 472 358.5 472C310.175 472 271 432.825 271 384.5C271 336.175 310.175 297 358.5 297C406.825 297 446 336.175 446 384.5Z" fill="#9CA7D5"/>
<path d="M1048.31 1001H836.688C768.341 963.546 722 890.935 722 807.5C722 685.721 820.721 587 942.5 587C1064.28 587 1163 685.721 1163 807.5C1163 890.935 1116.66 963.546 1048.31 1001Z" fill="#9CA7D5"/>
<path d="M722 81C722 100.882 705.882 117 686 117C666.118 117 650 100.882 650 81C650 61.1177 666.118 45 686 45C705.882 45 722 61.1177 722 81Z" fill="#9CA7D5"/>
<path d="M282 916C282 949.137 255.137 976 222 976C188.863 976 162 949.137 162 916C162 882.863 188.863 856 222 856C255.137 856 282 882.863 282 916Z" fill="#9CA7D5"/>
<path d="M0 0H1450V1000H0V0Z" fill="black" fill-opacity="0.5"/>
</svg>
