<svg width="1000" height="1000" viewBox="0 0 1000 1000" fill="none" xmlns="http://www.w3.org/2000/svg">
<path d="M1000 500C1000 776.142 776.142 1000 500 1000C223.858 1000 0 776.142 0 500C0 223.858 223.858 0 500 0C776.142 0 1000 223.858 1000 500Z" fill="#9CA7D5"/>
<path fill-rule="evenodd" clip-rule="evenodd" d="M696.373 959.963C874.898 883.647 1000 706.433 1000 500C1000 483.925 999.241 468.027 997.758 452.34C980.179 467.697 957.176 477 932 477C876.772 477 832 432.228 832 377C832 321.772 876.772 277 932 277C937.549 277 942.993 277.452 948.296 278.321C866.584 113.391 696.534 0 500 0C418.322 0 341.219 19.5844 273.13 54.3136C302.192 64.646 323 92.393 323 125C323 166.421 289.421 200 248 200C206.579 200 173 166.421 173 125C173 123.887 173.024 122.78 173.072 121.68C114.379 172.445 67.6216 236.639 37.5767 309.485C51.9236 301.53 68.4328 297 86 297C141.228 297 186 341.772 186 397C186 452.228 141.228 497 86 497C50.9781 497 20.1611 478.997 2.29909 451.74C0.778082 467.621 0 483.72 0 500C0 582.728 20.0913 660.763 55.6606 729.492C87.0798 682.753 140.449 652 201 652C297.65 652 376 730.35 376 827C376 881.95 350.673 930.985 311.057 963.068C369.35 986.878 433.142 1000 500 1000C534.576 1000 568.332 996.491 600.931 989.808C599.674 985.423 599 980.79 599 976C599 948.386 621.386 926 649 926C671.005 926 689.69 940.215 696.373 959.963ZM376 522C376 494.386 398.386 472 426 472C453.614 472 476 494.386 476 522C476 549.614 453.614 572 426 572C398.386 572 376 549.614 376 522ZM575 125C533.579 125 500 158.579 500 200C500 241.421 533.579 275 575 275C616.421 275 650 241.421 650 200C650 158.579 616.421 125 575 125ZM745 692C745 664.386 767.386 642 795 642C822.614 642 845 664.386 845 692C845 719.614 822.614 742 795 742C767.386 742 745 719.614 745 692Z" fill="#D7DAED"/>
</svg>
