<svg width="1450" height="1000" viewBox="0 0 1450 1000" fill="none" xmlns="http://www.w3.org/2000/svg">
<rect width="1450" height="998.623" fill="#D7DAED"/>
<path fill-rule="evenodd" clip-rule="evenodd" d="M1122.5 223C1201.2 223 1265 159.201 1265 80.5C1265 50.6287 1255.81 22.9041 1240.1 0H1004.9C989.191 22.9041 980 50.6287 980 80.5C980 159.201 1043.8 223 1122.5 223Z" fill="#9CA7D5"/>
<circle cx="358.5" cy="383.5" r="87.5" fill="#9CA7D5"/>
<path fill-rule="evenodd" clip-rule="evenodd" d="M1048.31 1000H836.688C768.34 962.546 722 889.935 722 806.5C722 684.721 820.721 586 942.5 586C1064.28 586 1163 684.721 1163 806.5C1163 889.935 1116.66 962.546 1048.31 1000Z" fill="#9CA7D5"/>
<circle cx="686" cy="80" r="36" fill="#9CA7D5"/>
<circle cx="222" cy="915" r="60" fill="#9CA7D5"/>
</svg>
