<svg width="1920" height="1080" viewBox="0 0 1920 1080" fill="none" xmlns="http://www.w3.org/2000/svg">
<g clip-path="url(#clip0_402_381)">
<circle cx="219" cy="31" r="5" fill="#6017B3"/>
<circle cx="353" cy="79" r="5" fill="#2358DE"/>
<circle cx="125" cy="44" r="5" fill="#2358DE"/>
<circle cx="244" cy="146" r="5" fill="#6017B3"/>
<circle cx="416.052" cy="537.053" r="5" transform="rotate(139.182 416.052 537.053)" fill="#6017B3"/>
<circle cx="57.3159" cy="627.435" r="5" transform="rotate(139.182 57.3159 627.435)" fill="#2358DE"/>
<circle cx="266.495" cy="384.654" r="5" transform="rotate(139.182 266.495 384.654)" fill="#6017B3"/>
<circle cx="252.741" cy="504.888" r="5" transform="rotate(139.182 252.741 504.888)" fill="#2358DE"/>
<circle cx="96.0103" cy="505.481" r="5" transform="rotate(139.182 96.0103 505.481)" fill="#6017B3"/>
<circle cx="1055.47" cy="297.467" r="5" transform="rotate(95.6351 1055.47 297.467)" fill="#6017B3"/>
<circle cx="863.467" cy="442.467" r="5" transform="rotate(95.6351 863.467 442.467)" fill="#2358DE"/>
<circle cx="826.467" cy="293.467" r="5" transform="rotate(95.6351 826.467 293.467)" fill="#6017B3"/>
<circle cx="948.467" cy="298.467" r="5" transform="rotate(95.6351 948.467 298.467)" fill="#2358DE"/>
<circle cx="1583.37" cy="573.415" r="5" transform="rotate(159.24 1583.37 573.415)" fill="#6017B3"/>
<ellipse cx="639.24" cy="186.451" rx="74.3324" ry="25.732" transform="rotate(15 639.24 186.451)" fill="#1B0F75"/>
<ellipse cx="141.826" cy="337.469" rx="74.3324" ry="25.732" transform="rotate(80.343 141.826 337.469)" fill="#1B0F75"/>
<ellipse cx="1437.32" cy="395.153" rx="74.3324" ry="25.732" transform="rotate(-29.6701 1437.32 395.153)" fill="#1B0F75"/>
<circle cx="514.454" cy="824.524" r="22.5" transform="rotate(34.7742 514.454 824.524)" fill="#6017B3"/>
<circle cx="690.609" cy="725.959" r="5" transform="rotate(34.7742 690.609 725.959)" fill="#6017B3"/>
<circle cx="723.766" cy="964.264" r="5" transform="rotate(34.7742 723.766 964.264)" fill="#2358DE"/>
<circle cx="575.607" cy="924.029" r="5" transform="rotate(34.7742 575.607 924.029)" fill="#6017B3"/>
<circle cx="639.38" cy="819.904" r="5" transform="rotate(34.7742 639.38 819.904)" fill="#2358DE"/>
<circle cx="632.661" cy="1029.11" r="5" transform="rotate(34.7742 632.661 1029.11)" fill="#2358DE"/>
<circle cx="1821.62" cy="651.684" r="5" transform="rotate(63.8825 1821.62 651.684)" fill="#6017B3"/>
<circle cx="1734.66" cy="876.022" r="5" transform="rotate(63.8825 1734.66 876.022)" fill="#2358DE"/>
<circle cx="1538.92" cy="806.38" r="5" transform="rotate(63.8825 1538.92 806.38)" fill="#6017B3"/>
<circle cx="1649.54" cy="996.911" r="5" transform="rotate(63.8825 1649.54 996.911)" fill="#2358DE"/>
<circle cx="1624.79" cy="768.794" r="5" transform="rotate(63.8825 1624.79 768.794)" fill="#6017B3"/>
<circle cx="1679.69" cy="670.691" r="5" transform="rotate(63.8825 1679.69 670.691)" fill="#2358DE"/>
<circle cx="1802.32" cy="787.344" r="12.5" transform="rotate(63.8825 1802.32 787.344)" fill="#6017B3"/>
<circle cx="1836.68" cy="904.673" r="5" transform="rotate(-98.3453 1836.68 904.673)" fill="#2358DE"/>
<circle cx="1788.99" cy="1064.94" r="5" transform="rotate(-98.3453 1788.99 1064.94)" fill="#2358DE"/>
<circle cx="1383.49" cy="751.215" r="32.5" transform="rotate(63.8825 1383.49 751.215)" fill="#1B0F75"/>
<circle cx="1293.88" cy="757.388" r="5" transform="rotate(-179.745 1293.88 757.388)" fill="#6017B3"/>
<circle cx="1061.02" cy="449.865" r="5" transform="rotate(-179.745 1061.02 449.865)" fill="#2358DE"/>
<circle cx="421.277" cy="423.714" r="5" transform="rotate(176.002 421.277 423.714)" fill="#2358DE"/>
<circle cx="559.498" cy="268.597" r="5" transform="rotate(176.002 559.498 268.597)" fill="#6017B3"/>
<circle cx="341.336" cy="299.338" r="5" transform="rotate(176.002 341.336 299.338)" fill="#2358DE"/>
<circle cx="561.984" cy="362.302" r="5" transform="rotate(176.002 561.984 362.302)" fill="#6017B3"/>
<circle cx="577.47" cy="483.418" r="5" transform="rotate(176.002 577.47 483.418)" fill="#2358DE"/>
<circle cx="498.64" cy="180.336" r="5" transform="rotate(176.002 498.64 180.336)" fill="#6017B3"/>
<circle cx="451.699" cy="316.106" r="5" transform="rotate(176.002 451.699 316.106)" fill="#2358DE"/>
<circle cx="927.382" cy="539.149" r="5" transform="rotate(59.8382 927.382 539.149)" fill="#6017B3"/>
<circle cx="831.689" cy="538.042" r="5" transform="rotate(140.205 831.689 538.042)" fill="#6017B3"/>
<circle cx="888.515" cy="612.591" r="5" transform="rotate(140.205 888.515 612.591)" fill="#6017B3"/>
<circle cx="241.938" cy="648.659" r="5" transform="rotate(-50.3842 241.938 648.659)" fill="#6017B3"/>
<circle cx="320.054" cy="806.783" r="5" transform="rotate(-50.3842 320.054 806.783)" fill="#6017B3"/>
<circle cx="438.915" cy="703.959" r="5" transform="rotate(-50.3842 438.915 703.959)" fill="#2358DE"/>
<circle cx="198.433" cy="850.207" r="5" transform="rotate(-50.3842 198.433 850.207)" fill="#6017B3"/>
<circle cx="240.516" cy="1048.29" r="5" transform="rotate(172.85 240.516 1048.29)" fill="#6017B3"/>
<circle cx="101.584" cy="1017.35" r="5" transform="rotate(172.85 101.584 1017.35)" fill="#2358DE"/>
<circle cx="297.909" cy="967.522" r="5" transform="rotate(172.85 297.909 967.522)" fill="#2358DE"/>
<circle cx="56.7591" cy="928.759" r="32.5" transform="rotate(-50.3842 56.7591 928.759)" fill="#1B0F75"/>
<circle cx="1628.83" cy="222.829" r="5" transform="rotate(-119.986 1628.83 222.829)" fill="#6017B3"/>
<circle cx="1628.83" cy="222.829" r="5" transform="rotate(-119.986 1628.83 222.829)" fill="#6017B3"/>
<circle cx="1849.83" cy="139.829" r="5" transform="rotate(-119.986 1849.83 139.829)" fill="#2358DE"/>
<circle cx="1507.83" cy="48.8295" r="5" transform="rotate(-119.986 1507.83 48.8295)" fill="#6017B3"/>
<circle cx="1884.22" cy="426.818" r="22.5" transform="rotate(135.482 1884.22 426.818)" fill="#6017B3"/>
<circle cx="1726.36" cy="506.896" r="5" transform="rotate(135.482 1726.36 506.896)" fill="#6017B3"/>
<circle cx="1632.07" cy="457.99" r="5" transform="rotate(135.482 1632.07 457.99)" fill="#2358DE"/>
<circle cx="1672.54" cy="566.3" r="5" transform="rotate(135.482 1672.54 566.3)" fill="#2358DE"/>
<circle cx="1742.07" cy="213.074" r="12.5" transform="rotate(-119.986 1742.07 213.074)" fill="#6017B3"/>
<circle cx="1054.06" cy="116.06" r="5" transform="rotate(-48.1596 1054.06 116.06)" fill="#6017B3"/>
<circle cx="1273.43" cy="62.2128" r="5" transform="rotate(-48.1596 1273.43 62.2128)" fill="#2358DE"/>
<circle cx="1324.02" cy="203.483" r="5" transform="rotate(-48.1596 1324.02 203.483)" fill="#2358DE"/>
<circle cx="1112.11" cy="849.75" r="5" transform="rotate(-57.8962 1112.11 849.75)" fill="#2358DE"/>
<circle cx="996.858" cy="627.893" r="5" transform="rotate(-57.8962 996.858 627.893)" fill="#6017B3"/>
<circle cx="918.127" cy="761.259" r="5" transform="rotate(-57.8962 918.127 761.259)" fill="#6017B3"/>
<circle cx="1106.19" cy="635.615" r="5" transform="rotate(-57.8962 1106.19 635.615)" fill="#6017B3"/>
<circle cx="1047.68" cy="753.743" r="5" transform="rotate(-57.8962 1047.68 753.743)" fill="#2358DE"/>
<circle cx="1470.65" cy="1036.14" r="5" transform="rotate(152.345 1470.65 1036.14)" fill="#6017B3"/>
<circle cx="1244.06" cy="955.237" r="5" transform="rotate(152.345 1244.06 955.237)" fill="#2358DE"/>
<circle cx="1348.3" cy="842.527" r="5" transform="rotate(152.345 1348.3 842.527)" fill="#6017B3"/>
<circle cx="1411.09" cy="947.251" r="5" transform="rotate(152.345 1411.09 947.251)" fill="#2358DE"/>
<circle cx="1247.79" cy="1016.39" r="5" transform="rotate(-85.8061 1247.79 1016.39)" fill="#6017B3"/>
<circle cx="1112.11" cy="849.75" r="5" transform="rotate(-57.8962 1112.11 849.75)" fill="#2358DE"/>
<circle cx="918.127" cy="761.259" r="5" transform="rotate(-57.8962 918.127 761.259)" fill="#6017B3"/>
<circle cx="1047.68" cy="753.743" r="5" transform="rotate(-57.8962 1047.68 753.743)" fill="#2358DE"/>
<ellipse cx="1213.37" cy="141.133" rx="40.1904" ry="13.9129" transform="rotate(-24.1403 1213.37 141.133)" fill="#1B0F75"/>
<ellipse cx="1213.37" cy="141.133" rx="40.1904" ry="13.9129" transform="rotate(-24.1403 1213.37 141.133)" fill="#1B0F75"/>
<ellipse cx="968.366" cy="913.133" rx="40.1904" ry="13.9129" transform="rotate(5.46332 968.366 913.133)" fill="#1B0F75"/>
<path d="M429.278 689.355C427.98 688.101 425.82 689.114 425.955 690.914L426.99 704.746L417.354 714.722C416.101 716.02 417.114 718.18 418.914 718.046L432.745 717.011L442.722 726.646C444.02 727.9 446.18 726.886 446.045 725.087L445.01 711.255L454.646 701.279C455.9 699.981 454.886 697.821 453.087 697.955L439.255 698.99L429.278 689.355Z" fill="#2358DE"/>
<path d="M221.483 18.7871C221.176 17.7505 219.75 17.6428 219.29 18.6213L215.754 26.1417L207.787 28.5069C206.751 28.8147 206.643 30.24 207.622 30.7001L215.142 34.2362L217.507 42.2028C217.815 43.2393 219.24 43.347 219.7 42.3686L223.237 34.8481L231.203 32.4829C232.24 32.1751 232.347 30.7498 231.369 30.2898L223.849 26.7537L221.483 18.7871Z" fill="#2358DE"/>
<path d="M47.0303 618.526C45.9664 618.333 45.2272 619.556 45.8929 620.408L51.0095 626.957L49.5266 635.134C49.3336 636.198 50.5571 636.937 51.4091 636.271L57.9575 631.155L66.1344 632.637C67.1983 632.83 67.9374 631.607 67.2717 630.755L62.1552 624.207L63.6381 616.03C63.831 614.966 62.6076 614.227 61.7556 614.892L55.2072 620.009L47.0303 618.526Z" fill="#2358DE"/>
<path d="M18.6819 475.758C18.2969 474.747 16.8675 474.747 16.4825 475.758L13.5234 483.523L5.75779 486.482C4.7474 486.867 4.7474 488.297 5.75779 488.682L13.5234 491.641L16.4825 499.407C16.8675 500.417 18.2969 500.417 18.6819 499.407L21.641 491.641L29.4066 488.682C30.417 488.297 30.417 486.867 29.4066 486.482L21.641 483.523L18.6819 475.758Z" fill="#2358DE"/>
<path d="M195.757 1009.7C197.532 1010.03 198.773 1007.99 197.668 1006.57L189.171 995.603L191.7 981.965C192.029 980.191 189.992 978.949 188.566 980.055L177.603 988.551L163.965 986.022C162.191 985.693 160.949 987.73 162.055 989.157L170.551 1000.12L168.022 1013.76C167.693 1015.53 169.73 1016.77 171.157 1015.67L182.12 1007.17L195.757 1009.7Z" fill="#1B0F75"/>
<path d="M252.145 489.267C251.201 487.729 248.856 488.171 248.538 489.948L246.087 503.599L234.267 510.856C232.729 511.8 233.171 514.144 234.947 514.463L248.599 516.913L255.855 528.734C256.799 530.272 259.144 529.829 259.463 528.053L261.913 514.401L273.733 507.145C275.271 506.201 274.829 503.857 273.053 503.538L259.401 501.088L252.145 489.267Z" fill="#2358DE"/>
<path d="M334.631 295.99C333.552 296.054 333.123 297.418 333.972 298.088L340.494 303.238L340.989 311.534C341.054 312.613 342.418 313.041 343.088 312.193L348.238 305.671L356.534 305.175C357.613 305.111 358.041 303.747 357.193 303.077L350.671 297.926L350.175 289.631C350.111 288.552 348.747 288.123 348.077 288.972L342.926 295.494L334.631 295.99Z" fill="#6017B3"/>
<path d="M893.584 601.812C893.56 600.731 892.214 600.251 891.512 601.074L886.12 607.397L877.812 607.58C876.731 607.604 876.251 608.951 877.074 609.652L883.397 615.045L883.58 623.353C883.604 624.434 884.95 624.913 885.652 624.091L891.044 617.767L899.353 617.585C900.434 617.561 900.913 616.214 900.09 615.513L893.767 610.12L893.584 601.812Z" fill="#6017B3"/>
<path d="M252.086 737.641C251.156 737.089 250.037 737.978 250.364 739.009L252.879 746.93L248.64 754.078C248.089 755.008 248.978 756.127 250.009 755.8L257.929 753.285L265.077 757.524C266.008 758.075 267.127 757.186 266.799 756.155L264.285 748.235L268.523 741.087C269.075 740.156 268.186 739.037 267.155 739.365L259.234 741.879L252.086 737.641Z" fill="#2358DE"/>
<path d="M726.295 954.302C726.145 953.232 724.752 952.912 724.151 953.811L719.533 960.72L711.303 961.871C710.232 962.02 709.913 963.414 710.812 964.014L717.72 968.633L718.871 976.863C719.02 977.934 720.414 978.253 721.015 977.354L725.633 970.445L733.863 969.295C734.934 969.145 735.253 967.752 734.354 967.151L727.446 962.533L726.295 954.302Z" fill="#6017B3"/>
<path d="M1217.72 846.09C1216.77 846.608 1216.96 848.024 1218.01 848.269L1226.11 850.152L1230.09 857.447C1230.61 858.396 1232.02 858.203 1232.27 857.15L1234.15 849.056L1241.45 845.075C1242.4 844.557 1242.2 843.141 1241.15 842.896L1233.05 841.013L1229.07 833.718C1228.56 832.769 1227.14 832.962 1226.89 834.015L1225.01 842.109L1217.72 846.09Z" fill="#2358DE"/>
<path d="M1464.62 549.793C1463.78 549.111 1462.54 549.826 1462.72 550.893L1464.04 559.097L1458.79 565.544C1458.11 566.383 1458.83 567.621 1459.89 567.449L1468.1 566.126L1474.54 571.371C1475.38 572.053 1476.62 571.338 1476.45 570.27L1475.13 562.066L1480.37 555.619C1481.05 554.78 1480.34 553.543 1479.27 553.715L1471.07 555.037L1464.62 549.793Z" fill="#2358DE"/>
<path d="M1579.55 951.963C1579.73 950.898 1578.5 950.17 1577.65 950.844L1571.15 956.022L1562.96 954.617C1561.9 954.435 1561.17 955.665 1561.84 956.511L1567.02 963.01L1565.62 971.201C1565.44 972.266 1566.67 972.994 1567.51 972.32L1574.01 967.141L1582.2 968.546C1583.27 968.729 1583.99 967.499 1583.32 966.653L1578.14 960.154L1579.55 951.963Z" fill="#2358DE"/>
<path d="M1720.8 495.711C1719.98 495.015 1718.73 495.709 1718.88 496.779L1720.06 505.005L1714.71 511.362C1714.02 512.19 1714.71 513.439 1715.78 513.285L1724.01 512.101L1730.36 517.453C1731.19 518.149 1732.44 517.455 1732.29 516.385L1731.1 508.159L1736.45 501.802C1737.15 500.975 1736.46 499.725 1735.39 499.879L1727.16 501.063L1720.8 495.711Z" fill="#2358DE"/>
<path d="M1782.04 295.61C1781.23 294.896 1779.96 295.563 1780.09 296.636L1781.1 304.885L1775.61 311.125C1774.9 311.937 1775.56 313.201 1776.64 313.07L1784.89 312.066L1791.12 317.555C1791.94 318.269 1793.2 317.602 1793.07 316.529L1792.07 308.28L1797.55 302.04C1798.27 301.228 1797.6 299.964 1796.53 300.095L1788.28 301.099L1782.04 295.61Z" fill="#2358DE"/>
<path d="M1194 967.558C1193.92 966.48 1192.54 966.074 1191.89 966.933L1186.84 973.538L1178.56 974.168C1177.48 974.25 1177.07 975.62 1177.93 976.276L1184.54 981.32L1185.17 989.607C1185.25 990.685 1186.62 991.091 1187.28 990.232L1192.32 983.627L1200.61 982.997C1201.68 982.915 1202.09 981.545 1201.23 980.888L1194.63 975.844L1194 967.558Z" fill="#2358DE"/>
<path d="M650.463 825.34C651.544 825.291 651.993 823.934 651.154 823.252L644.711 818.003L644.34 809.701C644.292 808.621 642.935 808.172 642.252 809.011L637.004 815.454L628.702 815.825C627.622 815.873 627.173 817.23 628.011 817.913L634.455 823.161L634.825 831.463C634.874 832.543 636.231 832.992 636.913 832.154L642.161 825.71L650.463 825.34Z" fill="#2358DE"/>
<path d="M1627 62.4424C1626.01 62 1625 63.0105 1625.44 63.9973L1628.84 71.5814L1625.44 79.1643C1625 80.1509 1626.01 81.1618 1627 80.7198L1634.58 77.3225L1642.16 80.7227C1643.15 81.1651 1644.16 80.1546 1643.72 79.1678L1640.32 71.5836L1643.72 64.0008C1644.16 63.0142 1643.15 62.0033 1642.17 62.4453L1634.58 65.8425L1627 62.4424Z" fill="#2358DE"/>
<path d="M1124.43 572.943C1123.42 572.564 1122.48 573.637 1122.98 574.594L1126.85 581.946L1123.94 589.73C1123.56 590.743 1124.64 591.687 1125.59 591.183L1132.95 587.31L1140.73 590.221C1141.74 590.6 1142.69 589.527 1142.18 588.57L1138.31 581.218L1141.22 573.434C1141.6 572.421 1140.53 571.476 1139.57 571.98L1132.22 575.853L1124.43 572.943Z" fill="#2358DE"/>
<path d="M1530.04 786.321C1528.6 785.236 1526.58 786.508 1526.93 788.277L1529.66 801.876L1521.32 812.962C1520.24 814.404 1521.51 816.423 1523.28 816.068L1536.88 813.342L1547.96 821.678C1549.4 822.763 1551.42 821.492 1551.07 819.722L1548.34 806.123L1556.68 795.037C1557.76 793.595 1556.49 791.576 1554.72 791.931L1541.12 794.658L1530.04 786.321Z" fill="#6017B3"/>
<path d="M978.452 385.579C978.525 383.776 976.332 382.837 975.077 384.135L965.437 394.107L951.579 393.548C949.775 393.475 948.837 395.669 950.134 396.923L960.107 406.563L959.548 420.422C959.475 422.225 961.668 423.164 962.923 421.866L972.563 411.893L986.421 412.452C988.225 412.525 989.163 410.332 987.866 409.078L977.893 399.438L978.452 385.579Z" fill="#1B0F75"/>
<path d="M1646.64 440.958C1646.95 439.18 1644.89 437.964 1643.48 439.087L1632.63 447.719L1618.96 445.36C1617.18 445.054 1615.96 447.106 1617.09 448.518L1625.72 459.375L1623.36 473.043C1623.05 474.821 1625.11 476.037 1626.52 474.914L1637.37 466.282L1651.04 468.641C1652.82 468.947 1654.04 466.895 1652.91 465.483L1644.28 454.626L1646.64 440.958Z" fill="#2358DE"/>
<path d="M1043.25 104.349C1041.7 103.421 1039.83 104.895 1040.36 106.618L1044.49 119.86L1037.35 131.752C1036.42 133.299 1037.89 135.175 1039.62 134.638L1052.86 130.512L1064.75 137.651C1066.3 138.579 1068.18 137.105 1067.64 135.382L1063.51 122.14L1070.65 110.248C1071.58 108.701 1070.11 106.825 1068.38 107.362L1055.14 111.488L1043.25 104.349Z" fill="#2358DE"/>
<path d="M357.95 134.276C357.199 133.498 355.884 134.059 355.927 135.14L356.255 143.443L350.276 149.214C349.498 149.965 350.059 151.28 351.139 151.237L359.443 150.909L365.214 156.888C365.965 157.666 367.28 157.105 367.237 156.025L366.909 147.721L372.888 141.95C373.666 141.199 373.105 139.884 372.024 139.927L363.721 140.255L357.95 134.276Z" fill="#2358DE"/>
<path d="M1327.48 1003.66C1326.13 1002.46 1324.02 1003.57 1324.23 1005.36L1325.86 1019.13L1316.66 1029.52C1315.46 1030.87 1316.57 1032.98 1318.36 1032.77L1332.14 1031.14L1342.52 1040.34C1343.87 1041.54 1345.98 1040.43 1345.77 1038.64L1344.14 1024.87L1353.34 1014.48C1354.54 1013.13 1353.43 1011.02 1351.64 1011.23L1337.87 1012.86L1327.48 1003.66Z" fill="#6017B3"/>
<path d="M392.871 851.508C392.98 850.433 391.703 849.791 390.905 850.522L384.776 856.134L376.509 855.294C375.433 855.185 374.792 856.462 375.522 857.26L381.134 863.389L380.294 871.656C380.185 872.732 381.463 873.373 382.26 872.643L388.389 867.031L396.657 867.871C397.732 867.98 398.374 866.702 397.643 865.905L392.031 859.776L392.871 851.508Z" fill="#6017B3"/>
<path d="M1362.57 77.1516C1363.12 76.2252 1362.24 75.1003 1361.21 75.4208L1353.27 77.8835L1346.15 73.5981C1345.23 73.0406 1344.1 73.9225 1344.42 74.9552L1346.88 82.8922L1342.6 90.0123C1342.04 90.9387 1342.92 92.0635 1343.96 91.7431L1351.89 89.2803L1359.01 93.5657C1359.94 94.1233 1361.06 93.2414 1360.74 92.2087L1358.28 84.2717L1362.57 77.1516Z" fill="#2358DE"/>
<path d="M514.893 993.015C514.209 992.178 512.853 992.629 512.806 993.71L512.45 1002.01L506.016 1007.27C505.178 1007.96 505.63 1009.31 506.71 1009.36L515.013 1009.71L520.272 1016.15C520.956 1016.99 522.312 1016.54 522.359 1015.45L522.715 1007.15L529.149 1001.89C529.987 1001.21 529.535 999.852 528.455 999.806L520.153 999.45L514.893 993.015Z" fill="#6017B3"/>
<path d="M1908.68 1017.76C1908.3 1016.75 1906.87 1016.75 1906.48 1017.76L1903.52 1025.52L1895.76 1028.48C1894.75 1028.87 1894.75 1030.3 1895.76 1030.68L1903.52 1033.64L1906.48 1041.41C1906.87 1042.42 1908.3 1042.42 1908.68 1041.41L1911.64 1033.64L1919.41 1030.68C1920.42 1030.3 1920.42 1028.87 1919.41 1028.48L1911.64 1025.52L1908.68 1017.76Z" fill="#1B0F75"/>
</g>
<defs>
<clipPath id="clip0_402_381">
<rect width="1920" height="1080" fill="white"/>
</clipPath>
</defs>
</svg>
