<svg width="1000" height="510" viewBox="0 0 1000 510" fill="none" xmlns="http://www.w3.org/2000/svg">
<path fill-rule="evenodd" clip-rule="evenodd" d="M0 510H1000C1000 228.335 776.142 0 500 0C223.858 0 0 228.335 0 510Z" fill="#345ECC"/>
<path fill-rule="evenodd" clip-rule="evenodd" d="M978.042 360.06C967.593 325.358 953.611 292.232 936.525 261.12C908.319 209.758 871.651 163.884 828.449 125.46H571.501C534.774 125.46 505.001 155.233 505.001 191.96V194.62C505.001 231.347 534.774 261.12 571.501 261.12H936.525L687.501 261.12C660.715 261.12 639.001 282.834 639.001 309.62V311.56C639.001 338.346 660.715 360.06 687.501 360.06H978.042ZM99.9641 204C47.3693 275.421 12.7302 361.386 2.88281 454.92H128.001C152.854 454.92 173.001 434.773 173.001 409.92V408.12C173.001 383.267 152.854 363.12 128.001 363.12H249.001C292.079 363.12 327.001 328.198 327.001 285.12V282C327.001 238.922 292.079 204 249.001 204H99.9641Z" fill="#2ACF3B"/>
<path fill-rule="evenodd" clip-rule="evenodd" d="M500 0V36C755.591 36 964 247.542 964 510H1000C1000 228.335 776.142 0 500 0Z" fill="#996742"/>
</svg>
