<svg width="1000" height="500" viewBox="0 0 1000 500" fill="none" xmlns="http://www.w3.org/2000/svg">
<path fill-rule="evenodd" clip-rule="evenodd" d="M965 500C965 243.188 756.812 35 500 35C243.188 35 35 243.188 35 500H965Z" fill="#345ECC"/>
<path fill-rule="evenodd" clip-rule="evenodd" d="M944.582 363.29C918.821 279.415 869.976 205.644 805.46 149.39H566.497C532.341 149.39 504.652 177.079 504.652 211.235C504.652 245.391 532.341 273.08 566.497 273.08H674.266C649.406 273.139 629.271 293.31 629.271 318.185C629.271 343.095 649.465 363.29 674.376 363.29H944.582ZM127.969 220.999C95.5552 264.153 70.4745 313.13 54.5772 366.079H266.572C306.635 366.079 339.112 333.602 339.112 293.539C339.112 253.477 306.634 220.999 266.572 220.999H127.969ZM54.5772 366.08C46.4853 393.032 40.7727 421.013 37.6836 449.78H154.041C177.154 449.78 195.891 431.043 195.891 407.93C195.891 384.816 177.154 366.08 154.041 366.08H54.5772Z" fill="#2ACF3B"/>
<path fill-rule="evenodd" clip-rule="evenodd" d="M965 500H1000C1000 223.858 776.142 0 500 0C223.858 0 0 223.858 0 500H35C35 243.188 243.188 35 500 35C756.812 35 965 243.188 965 500Z" fill="#467182"/>
</svg>
