<svg width="1000" height="500" viewBox="0 0 1000 500" fill="none" xmlns="http://www.w3.org/2000/svg">
<path fill-rule="evenodd" clip-rule="evenodd" d="M875 500C875 292.893 707.107 125 500 125C292.893 125 125 292.893 125 500H875Z" fill="#345ECC"/>
<path fill-rule="evenodd" clip-rule="evenodd" d="M858.527 389.75C837.752 322.109 798.361 262.616 746.332 217.25H553.621C526.075 217.25 503.746 239.58 503.746 267.125C503.746 294.67 526.076 317 553.621 317H640.621C620.531 317 604.246 333.286 604.246 353.375C604.246 373.464 620.531 389.75 640.621 389.75H858.527ZM199.968 275C160.522 327.516 134.543 390.725 127.157 459.5H220.996C239.635 459.5 254.746 444.39 254.746 425.75C254.746 407.11 239.635 392 220.996 392H311.746C344.054 392 370.246 365.809 370.246 333.5C370.246 301.191 344.054 275 311.746 275H199.968Z" fill="#2ACF3B"/>
<path fill-rule="evenodd" clip-rule="evenodd" d="M875 500L1000 500C1000 223.858 776.142 0 500 0C223.858 0 0 223.858 0 500H125C125 292.893 292.893 125 500 125C707.107 125 875 292.893 875 500Z" fill="#5E96AF"/>
</svg>
