<svg width="1000" height="500" viewBox="0 0 1000 500" fill="none" xmlns="http://www.w3.org/2000/svg">
<path fill-rule="evenodd" clip-rule="evenodd" d="M925 500C925 265.279 734.721 75 500 75C265.279 75 75 265.279 75 500H925Z" fill="#345ECC"/>
<path fill-rule="evenodd" clip-rule="evenodd" d="M906.335 375.05C882.79 298.39 838.146 230.965 779.18 179.55H560.772C529.554 179.55 504.247 204.857 504.247 236.075C504.247 267.293 529.554 292.6 560.772 292.6H659.349C636.593 292.614 618.15 311.065 618.15 333.825C618.15 356.593 636.607 375.05 659.375 375.05H906.335ZM159.968 245C115.263 304.518 85.8195 376.155 77.4492 454.1H183.799C204.924 454.1 222.049 436.975 222.049 415.85C222.049 394.725 204.924 377.6 183.799 377.6H286.649C323.265 377.6 352.949 347.916 352.949 311.3C352.949 274.683 323.265 245 286.649 245H159.968Z" fill="#2ACF3B"/>
<path fill-rule="evenodd" clip-rule="evenodd" d="M925 500H1000C1000 223.858 776.142 0 500 0C223.858 0 0 223.858 0 500H75C75 265.279 265.279 75 500 75C734.721 75 925 265.279 925 500Z" fill="#7CABBD"/>
</svg>
