<svg width="1000" height="500" viewBox="0 0 1000 500" fill="none" xmlns="http://www.w3.org/2000/svg">
<path fill-rule="evenodd" clip-rule="evenodd" d="M1000 500C1000 223.858 776.142 0 500 0C223.858 0 0 223.858 0 500H1000Z" fill="#345ECC"/>
<path fill-rule="evenodd" clip-rule="evenodd" d="M978.042 353C950.342 262.812 897.821 183.489 828.449 123H571.501C534.774 123 505.001 152.773 505.001 189.5C505.001 226.227 534.774 256 571.501 256H687.501C660.715 256 639.001 277.714 639.001 304.5C639.001 331.286 660.715 353 687.501 353H978.042ZM99.9641 200C47.3693 270.021 12.7302 354.3 2.88281 446H128.001C152.854 446 173.001 425.853 173.001 401C173.001 376.147 152.854 356 128.001 356H249.001C292.079 356 327.001 321.078 327.001 278C327.001 234.922 292.079 200 249.001 200H99.9641Z" fill="#2ACF3B"/>
<path fill-rule="evenodd" clip-rule="evenodd" d="M500 0V285C618.741 285 715 381.259 715 500H1000C1000 223.858 776.142 0 500 0Z" fill="#B22222"/>
<path fill-rule="evenodd" clip-rule="evenodd" d="M500 0V36C756.26 36 964 243.74 964 500H1000C1000 223.858 776.142 0 500 0Z" fill="#996742"/>
</svg>
